<svg xmlns="http://www.w3.org/2000/svg" viewBox="0 0 28.9 22.7" width="28">
  <g data-name="Layer 2">
    <path fill="#ebf5fa" d="M10.08 12.579a5 5 0 011.41 3.66 6.21 6.21 0 01-1.83 4.72 6.13 6.13 0 01-4.38 1.74 5 5 0 01-3.74-1.57 6.15 6.15 0 01-1.53-4.43 10 10 0 01.34-2.63q1.56-7.43 10.63-14.07l2.21 2.47a22.76 22.76 0 00-6.72 8.67h.26a4.5 4.5 0 013.35 1.44zm15.73 0a5.08 5.08 0 011.4 3.66 6.21 6.21 0 01-1.83 4.72 6.13 6.13 0 01-4.38 1.74 5 5 0 01-3.73-1.57 6.11 6.11 0 01-1.53-4.43 10 10 0 01.34-2.63q1.53-7.39 10.62-14l2.21 2.4a22.73 22.73 0 00-6.71 8.67h.25a4.54 4.54 0 013.36 1.44z" data-name="Layer 3"/>
  </g>
</svg>