<svg xmlns="http://www.w3.org/2000/svg" viewBox="0 0 28.9 22.7" width="28"><g id="146eddf7-4e15-4e83-b2d5-d0a8ecc95f37" data-name="Layer 2"><g id="05c97760-b21c-41d3-a524-e6724a652d41" data-name="Layer 3"><path fill="#ebf5fa" class="bcda5220-fa17-4284-8232-55da27a54195" d="M18.83,10.12a5,5,0,0,1-1.41-3.66,6.21,6.21,0,0,1,1.83-4.72A6.13,6.13,0,0,1,23.63,0a5,5,0,0,1,3.74,1.57A6.15,6.15,0,0,1,28.9,6a10,10,0,0,1-.34,2.63Q27,16.06,17.93,22.7l-2.21-2.47a22.76,22.76,0,0,0,6.72-8.67h-.26A4.5,4.5,0,0,1,18.83,10.12Zm-15.73,0A5.08,5.08,0,0,1,1.7,6.46,6.21,6.21,0,0,1,3.53,1.74,6.13,6.13,0,0,1,7.91,0a5,5,0,0,1,3.73,1.57A6.11,6.11,0,0,1,13.17,6a10,10,0,0,1-.34,2.63q-1.53,7.39-10.62,14L0,20.23a22.73,22.73,0,0,0,6.71-8.67H6.46A4.54,4.54,0,0,1,3.1,10.12Z"/></g></g></svg>