<?xml version="1.0" encoding="utf-8"?>
<!-- Generator: Adobe Illustrator 22.0.1, SVG Export Plug-In . SVG Version: 6.00 Build 0)  -->
<svg version="1.1" id="Capa_1" xmlns="http://www.w3.org/2000/svg" xmlns:xlink="http://www.w3.org/1999/xlink" x="0px" y="0px"
	 viewBox="0 0 222.6 222.6" style="enable-background:new 0 0 222.6 222.6;" xml:space="preserve">
<style type="text/css">
	.st0{fill:#000002;}
</style>
<path class="st0" d="M111.3,45.3c-36.4,0-66,29.6-66,66s29.6,66,66,66c10.7,0,21.3-2.6,30.7-7.5c3.7-1.9,5.1-6.5,3.2-10.1
	c-1.9-3.7-6.5-5.1-10.1-3.2c-7.4,3.9-15.3,5.8-23.7,5.8c-28.1,0-51-22.9-51-51s22.9-51,51-51s51,22.9,51,51c0,8-4.1,14.4-10.9,17.1
	c-4.8,1.9-10.1,1.7-14.5-0.5c1.7-3.3,2.9-6.9,3.5-10.7c0.4-2.3,0.5-4.6,0.5-6.8l0-27.5c0-4.2-3.3-7.5-7.5-7.5
	c-2.1,0-3.9,0.8-5.3,2.2c-1.4,1.3-2.2,3.2-2.2,5.3v0.2c-3.2-2-6.9-3.4-10.7-4c-1.6-0.3-3.2-0.4-4.8-0.4c-15.5,0-28.7,12-31.4,28.5
	c-3,18.3,8.3,35.4,25.2,38.2c1.6,0.3,3.2,0.4,4.7,0.4c6.7,0,12.9-2.2,18.1-6.1c8.8,5.7,19.8,6.8,29.9,2.8c12.5-5,20.3-16.9,20.3-31
	C177.3,74.9,147.7,45.3,111.3,45.3z M125.9,111.5c0,1.1-0.1,2.2-0.3,3.3c-1.5,9.1-8.6,15.9-16.6,15.9c-0.8,0-1.5-0.1-2.3-0.2
	c-8.8-1.4-14.5-10.8-12.9-20.9c1.5-9.1,8.6-15.9,16.6-15.9c0.8,0,1.5,0.1,2.3,0.2c4.1,0.7,7.7,3.1,10.2,6.9c1.9,2.9,2.9,6.4,3,10
	V111.5z"/>
<path d="M111.3,45.3c-36.4,0-66,29.6-66,66s29.6,66,66,66c10.7,0,21.3-2.6,30.7-7.5c3.7-1.9,5.1-6.5,3.2-10.1
	c-1.9-3.7-6.5-5.1-10.1-3.2c-7.4,3.9-15.3,5.8-23.7,5.8c-28.1,0-51-22.9-51-51s22.9-51,51-51s51,22.9,51,51c0,8-4.1,14.4-10.9,17.1
	c-4.8,1.9-10.1,1.7-14.5-0.5c1.7-3.3,2.9-6.9,3.5-10.7c0.4-2.3,0.5-4.6,0.5-6.8l0-27.5c0-4.2-3.3-7.5-7.5-7.5
	c-2.1,0-3.9,0.8-5.3,2.2c-1.4,1.3-2.2,3.2-2.2,5.3v0.2c-3.2-2-6.9-3.4-10.7-4c-1.6-0.3-3.2-0.4-4.8-0.4c-15.5,0-28.7,12-31.4,28.5
	c-3,18.3,8.3,35.4,25.2,38.2c1.6,0.3,3.2,0.4,4.7,0.4c6.7,0,12.9-2.2,18.1-6.1c8.8,5.7,19.8,6.8,29.9,2.8c12.5-5,20.3-16.9,20.3-31
	C177.3,74.9,147.7,45.3,111.3,45.3z M125.9,111.5c0,1.1-0.1,2.2-0.3,3.3c-1.5,9.1-8.6,15.9-16.6,15.9c-0.8,0-1.5-0.1-2.3-0.2
	c-8.8-1.4-14.5-10.8-12.9-20.9c1.5-9.1,8.6-15.9,16.6-15.9c0.8,0,1.5,0.1,2.3,0.2c4.1,0.7,7.7,3.1,10.2,6.9c1.9,2.9,2.9,6.4,3,10
	V111.5z"/>
<path d="M196.5,0H26.1C11.7,0,0,11.7,0,26.1v170.5c0,14.4,11.7,26.1,26.1,26.1h170.5c14.4,0,26.1-11.7,26.1-26.1V26.1
	C222.6,11.7,210.9,0,196.5,0z M205.3,196.5c0,4.8-3.9,8.7-8.7,8.7H26.1c-4.8,0-8.7-3.9-8.7-8.7V26.1c0-4.8,3.9-8.7,8.7-8.7h170.5
	c4.8,0,8.7,3.9,8.7,8.7V196.5z"/>
<path d="M111.3,45.3c-36.4,0-66,29.6-66,66s29.6,66,66,66c10.7,0,21.3-2.6,30.7-7.5c3.7-1.9,5.1-6.5,3.2-10.1
	c-1.9-3.7-6.5-5.1-10.1-3.2c-7.4,3.9-15.3,5.8-23.7,5.8c-28.1,0-51-22.9-51-51s22.9-51,51-51s51,22.9,51,51c0,8-4.1,14.4-10.9,17.1
	c-4.8,1.9-10.1,1.7-14.5-0.5c1.7-3.3,2.9-6.9,3.5-10.7c0.4-2.3,0.5-4.6,0.5-6.8l0-27.5c0-4.2-3.3-7.5-7.5-7.5
	c-2.1,0-3.9,0.8-5.3,2.2c-1.4,1.3-2.2,3.2-2.2,5.3v0.2c-3.2-2-6.9-3.4-10.7-4c-1.6-0.3-3.2-0.4-4.8-0.4c-15.5,0-28.7,12-31.4,28.5
	c-3,18.3,8.3,35.4,25.2,38.2c1.6,0.3,3.2,0.4,4.7,0.4c6.7,0,12.9-2.2,18.1-6.1c8.8,5.7,19.8,6.8,29.9,2.8c12.5-5,20.3-16.9,20.3-31
	C177.3,74.9,147.7,45.3,111.3,45.3z M125.9,111.5c0,1.1-0.1,2.2-0.3,3.3c-1.5,9.1-8.6,15.9-16.6,15.9c-0.8,0-1.5-0.1-2.3-0.2
	c-8.8-1.4-14.5-10.8-12.9-20.9c1.5-9.1,8.6-15.9,16.6-15.9c0.8,0,1.5,0.1,2.3,0.2c4.1,0.7,7.7,3.1,10.2,6.9c1.9,2.9,2.9,6.4,3,10
	V111.5z"/>
</svg>
