<?xml version="1.0" encoding="UTF-8"?><svg id="Calque_1" xmlns="http://www.w3.org/2000/svg" viewBox="0 0 64.91 59.87"><defs><style>.cls-1{fill:#ff6669;}.cls-2{fill:#063dd0;}.cls-3{fill:#1adee0;}</style></defs><g id="Groupe_3008"><g id="Groupe_3004"><g id="Groupe_3003"><g id="Groupe_2927"><path id="Tracé_1544" class="cls-2" d="m32.45,51.25c-11.77-.01-21.3-9.55-21.32-21.32h9.85c0,6.33,5.14,11.46,11.47,11.46v9.85Z"/><path id="Tracé_1545" class="cls-2" d="m53.77,29.94h-9.85c0-6.33-5.14-11.46-11.47-11.47v-9.85c11.77.01,21.31,9.55,21.32,21.32"/><path id="Tracé_1546" class="cls-1" d="m49.14,43.03c0,2.86-2.32,5.19-5.19,5.19-2.86,0-5.19-2.32-5.19-5.19s2.32-5.19,5.19-5.19h0c2.86,0,5.19,2.32,5.19,5.19"/><path id="Tracé_1547" class="cls-3" d="m23.96,17.85c0,2.86-2.32,5.19-5.19,5.19-2.86,0-5.19-2.32-5.19-5.19s2.32-5.19,5.19-5.19,5.19,2.32,5.19,5.19h0"/></g></g></g></g></svg>