<?xml version="1.0" encoding="UTF-8"?><svg id="Calque_1" xmlns="http://www.w3.org/2000/svg" viewBox="0 0 1920 1824.6"><defs><style>.cls-1{stroke-miterlimit:10;}.cls-1,.cls-2{fill:none;stroke:#003caa;stroke-width:3px;}</style></defs><g id="Groupe_2911"><g id="Groupe_de_masques_1"><line id="Ligne_42" class="cls-1" x1="1657.5" y1="373.93" x2="1793.3" y2="373.93"/><path id="Tracé_1525" class="cls-2" d="m1793.3,143.53v1463.09"/></g></g><g id="Groupe_21"><g id="Groupe_2882"><path id="Tracé_83" class="cls-1" d="m232.06,652.03c0-17.23,13.97-31.2,31.2-31.2s31.2,13.97,31.2,31.2v256.56h259.09"/><path id="Tracé_84" class="cls-1" d="m135.67,652.63c.48-70.47,58-127.21,128.47-126.72,69.79.48,126.24,56.93,126.72,126.72v255.85"/><polyline id="Ligne_7" class="cls-1" points="294.47 738.53 66.75 738.53 66.72 0"/><path id="Tracé_85" class="cls-1" d="m-25.37,738.59v3.76c.48,70.47,58,127.21,128.47,126.72,69.79-.48,126.24-56.93,126.72-126.72v-4.5"/><path id="Tracé_98" class="cls-2" d="m294.47,652.04H66.72"/></g></g><g id="Groupe_2913"><g id="Groupe_2912"><path id="Tracé_1526" class="cls-1" d="m2105.66,1481.26c.07.72.07,1.45.07,2.17v122.98h-312.29v-125.15h312.22Z"/><path id="Tracé_1527" class="cls-1" d="m2140.99,1322.41c60.55,29.93,99.17,91.31,99.95,158.84.07.72.07,1.44.07,2.17v496.53h-135.29v-496.53c0-.73,0-1.45-.07-2.17-1.11-23.63-20.63-42.19-44.28-42.12-23.47.07-42.71,18.66-43.56,42.12h-135.68c.89-67.5,39.48-128.84,99.95-158.84"/><path id="Tracé_1528" class="cls-1" d="m1793.3,1606.62c-.03,24.51,19.91,42.04,44.41,42.07.04,0,.09,0,.13,0,23.75-.06,43.14-18.43,43.76-42.17h136.03c-1.02,98.71-81.41,177.86-179.79,177.86-99.39,0-180.34-77.84-180.34-177.23V143.8"/></g></g><path id="Tracé_83-2" class="cls-1" d="m129.13,738.47c0,17.23-13.97,31.2-31.2,31.2s-31.2-13.97-31.2-31.2"/></svg>