<?xml version="1.0" encoding="UTF-8"?><svg id="Calque_1" xmlns="http://www.w3.org/2000/svg" viewBox="0 0 1920.99 1838.57"><defs><style>.cls-1{stroke-miterlimit:10;}.cls-1,.cls-2,.cls-3{fill:none;stroke:#003caa;}.cls-1,.cls-3{stroke-width:3px;}.cls-2{stroke-miterlimit:10;stroke-width:3px;}</style></defs><g id="Groupe_21"><g id="Groupe_2882"><path id="Tracé_83" class="cls-1" d="m1562.79-878.92c0-23.98-19.44-43.42-43.42-43.42s-43.42,19.44-43.42,43.42v387.65H28.2S22.82,0,22.82,0"/></g></g><g id="W_Ligne_rond"><g id="Groupe_3152"><path id="Tracé_86" class="cls-3" d="m-31.95,325.58v687.85h1578.95v-88.93"/></g></g><g id="Groupe_25"><g id="Groupe_24"><path id="Tracé_87" class="cls-1" d="m-35.89,1478.84h203.16v-465.23"/><line id="Ligne_9" class="cls-1" x1="249.14" y1="1013.61" x2="249.14" y2="1368.8"/><path id="Tracé_88" class="cls-1" d="m364.95,1268.56c0,21.68-17.57,39.25-39.25,39.25s-39.25-17.57-39.25-39.25,17.57-39.25,39.25-39.25,39.25,17.57,39.25,39.25h0Z"/><circle id="Ellipse_3" class="cls-2" cx="325.69" cy="1268.56" r="76.55"/><path id="Tracé_89" class="cls-1" d="m292.84,1837.57l.03-361.14c.1-17.52,14.39-31.64,31.91-31.54,17.38.1,31.44,14.16,31.54,31.54v2.47"/><line id="Ligne_10" class="cls-1" x1="392.45" y1="1306.02" x2="789.52" y2="1306.02"/><path id="Tracé_90" class="cls-1" d="m167.26,1478.84h26.65v-3.83c.2-71.64,58.44-129.55,130.07-129.35,71.36.2,129.15,58,129.35,129.35v3.9h-160.47"/><line id="Ligne_12" class="cls-1" x1="193.91" y1="1478.84" x2="193.91" y2="1837.57"/><path id="Tracé_91" class="cls-1" d="m432.21,1404.03h357.32"/><path id="Tracé_92" class="cls-1" d="m542.02,1177.01c-.1,17.52-14.39,31.64-31.91,31.54-17.38-.1-31.44-14.16-31.54-31.54v-163.22"/><path id="Tracé_93" class="cls-1" d="m640.01,1176.41c.03,71.64-58.01,129.74-129.65,129.77-71.64.03-129.74-58.01-129.77-129.65v-163.11"/><line id="Ligne_13" class="cls-1" x1="478.58" y1="1177.01" x2="789.52" y2="1177.01"/><line id="Ligne_14" class="cls-1" x1="248.94" y1="1154.39" x2="380.59" y2="1154.39"/></g></g><g id="Groupe_30"><g id="Groupe_26-2"><path id="Tracé_94-2" class="cls-1" d="m54.02,0v1479.54"/></g></g><line class="cls-1" x1="22.82" x2="22.82" y2="59.5"/><line class="cls-1" x1="54.03" y1="0" x2="54.03" y2="-78.41"/></svg>