<?xml version="1.0" encoding="UTF-8"?><svg id="Calque_1" xmlns="http://www.w3.org/2000/svg" xmlns:xlink="http://www.w3.org/1999/xlink" viewBox="0 0 393.19 130.03"><defs><style>.cls-1,.cls-2,.cls-3,.cls-4,.cls-5{fill:none;}.cls-2{clip-path:url(#clippath-2);}.cls-3{clip-path:url(#clippath-1);}.cls-4{stroke:#003caa;stroke-miterlimit:10;stroke-width:2px;}.cls-5{clip-path:url(#clippath);}</style><clipPath id="clippath"><rect class="cls-1" x="0" width="393.19" height="130.03"/></clipPath><clipPath id="clippath-1"><rect class="cls-1" x="0" width="393.19" height="130.03"/></clipPath><clipPath id="clippath-2"><rect class="cls-1" x="0" width="393.19" height="130.03"/></clipPath></defs><g id="Groupe_2973"><g id="Groupe_2968"><g class="cls-5"><g id="Groupe_2967"><line id="Ligne_58" class="cls-4" y1="128.78" x2="393.19" y2="128.78"/><line id="Ligne_59" class="cls-4" y1="27.58" x2="393.19" y2="27.58"/><line id="Ligne_60" class="cls-4" y1="1.12" x2="393.19" y2="1.12"/></g></g></g><line id="Ligne_61" class="cls-4" x1="263.4" y1="128.78" x2="263.4" y2="1.12"/><g id="Groupe_2970"><g class="cls-3"><g id="Groupe_2969"><line id="Ligne_62" class="cls-4" x1="263.4" y1="128.78" x2="263.4" y2="1.15"/><line id="Ligne_63" class="cls-4" x1="226.61" y1="128.78" x2="226.61" y2="1.15"/><line id="Ligne_64" class="cls-4" x1="160.82" y1="128.78" x2="160.82" y2="27.58"/></g></g></g><line id="Ligne_65" class="cls-4" x1="226.61" y1="64.95" x2="160.82" y2="64.95"/><g id="Groupe_2972"><g class="cls-2"><g id="Groupe_2971"><path id="Tracé_1602" class="cls-4" d="m314.06,128.91c-27.98,0-50.66-22.68-50.66-50.66,0-27.98,22.68-50.66,50.66-50.66,27.98,0,50.66,22.68,50.66,50.66h0c-.03,27.97-22.69,50.63-50.66,50.66Zm0-77.3c-14.71,0-26.64,11.92-26.64,26.64,0,14.71,11.92,26.64,26.64,26.64,14.71,0,26.64-11.92,26.64-26.63-.02-14.7-11.93-26.62-26.64-26.64Z"/></g></g></g></g></svg>