<?xml version="1.0" encoding="UTF-8" standalone="no"?>
<svg
   id="Calque_1"
   viewBox="0 0 914.78998 501.70997"
   version="1.1"
   sodipodi:docname="bkg_desktop_5.svg"
   width="914.78998"
   height="501.70999"
   inkscape:version="1.2.2 (b0a8486541, 2022-12-01)"
   xmlns:inkscape="http://www.inkscape.org/namespaces/inkscape"
   xmlns:sodipodi="http://sodipodi.sourceforge.net/DTD/sodipodi-0.dtd"
   xmlns="http://www.w3.org/2000/svg"
   xmlns:svg="http://www.w3.org/2000/svg">
  <sodipodi:namedview
     id="namedview15"
     pagecolor="#ffffff"
     bordercolor="#666666"
     borderopacity="1.0"
     inkscape:showpageshadow="2"
     inkscape:pageopacity="0.0"
     inkscape:pagecheckerboard="0"
     inkscape:deskcolor="#d1d1d1"
     showgrid="false"
     inkscape:zoom="0.60981268"
     inkscape:cx="-61.494294"
     inkscape:cy="62.314218"
     inkscape:window-width="2048"
     inkscape:window-height="1083"
     inkscape:window-x="0"
     inkscape:window-y="0"
     inkscape:window-maximized="1"
     inkscape:current-layer="Calque_1" />
  <defs
     id="defs4">
    <style
       id="style2">.cls-1{fill:none;stroke:#003caa;stroke-miterlimit:10;stroke-width:3px;}</style>
  </defs>
  <g
     id="Groupe_2873"
     transform="translate(-1023.9,-637.69)">
    <g
       id="Groupe_2872">
      <path
         id="Tracé_1495"
         class="cls-1"
         d="m 1782.63,946.49 c 20.65,0.01 37.38,16.76 37.37,37.41 -0.01,20.63 -16.73,37.35 -37.37,37.37 l -755.04,0.03" />
      <path
         id="Tracé_1496"
         class="cls-1"
         d="m 1676.08,829.45 c -20.65,0 -37.39,-16.74 -37.39,-37.39 0,-20.65 16.74,-37.39 37.39,-37.39 h 260.89" />
      <path
         id="Tracé_1497"
         class="cls-1"
         d="m 1676.8,944.95 c -84.44,0 -152.88,-68.45 -152.88,-152.88 0,-84.43 68.45,-152.88 152.88,-152.88 h 260.61" />
      <line
         id="Ligne_30"
         class="cls-1"
         x1="1676.09"
         y1="754.66998"
         x2="1676.09"
         y2="1021.3" />
      <line
         id="Ligne_31"
         class="cls-1"
         x1="1784.3101"
         y1="755.42999"
         x2="1784.3101"
         y2="1021.27" />
      <path
         id="Tracé_1498"
         class="cls-1"
         d="m 1784.31,832.14 c 84.44,0 152.88,68.45 152.88,152.88 0,84.43 -68.45,152.88 -152.88,152.88 H 1023.9" />
    </g>
  </g>
</svg>
