<?xml version="1.0" encoding="UTF-8"?><svg id="Calque_1" xmlns="http://www.w3.org/2000/svg" viewBox="0 0 1920 1080"><defs><style>.cls-1{stroke-miterlimit:10;}.cls-1,.cls-2,.cls-3,.cls-4{fill:none;}.cls-1,.cls-2,.cls-4{stroke:#003caa;}.cls-1,.cls-4{stroke-width:3px;}.cls-2{stroke-miterlimit:10;stroke-width:3px;}.cls-3,.cls-5{stroke-width:0px;}.cls-5{fill:#003caa;}</style></defs><g id="Groupe_3100"><g id="Groupe_3099"><line id="Ligne_105" class="cls-1" x1="829.34" y1="662.16" x2="829.34" y2="1057.48"/><path id="Tracé_1678" class="cls-1" d="m958.42,452.89c22.56-.11,39.11,18.09,39.23,40.65.11,22.56-18.09,40.95-40.65,41.06-.14,0-.27,0-.41,0l-956.78.03"/><path id="Tracé_1679" class="cls-1" d="m840.17,325c-22.56.11-40.94-18.09-41.06-40.65-.11-22.56,18.09-40.94,40.65-41.06.13,0,.27,0,.4,0h285.07"/><path id="Tracé_1680" class="cls-1" d="m840.94,451.2c-92.26,0-167.05-74.79-167.05-167.05s74.79-167.05,167.05-167.05h284.77"/><line id="Ligne_106" class="cls-1" x1="840.16" y1="243.29" x2="840.16" y2="534.63"/><line id="Ligne_107" class="cls-1" x1="958.42" y1="244.11" x2="958.42" y2="534.6"/><path id="Tracé_1681" class="cls-1" d="m958.42,327.93c92.26,0,167.05,74.79,167.05,167.05h0c0,92.26-74.79,166.95-167.05,166.95"/><path id="Tracé_1682" class="cls-1" d="m-.2,661.96h1125.67V68.5"/><line id="Ligne_108" class="cls-1" x1="1230.92" y1="68.5" x2="1230.92" y2="520.25"/><path id="Tracé_1683" class="cls-1" d="m1380.06,391.15c0,27.92-22.63,50.55-50.55,50.55-27.92,0-50.55-22.63-50.56-50.55,0-27.92,22.63-50.55,50.55-50.55h0c27.92,0,50.55,22.63,50.55,50.55Z"/><circle id="Ellipse_22" class="cls-2" cx="1329.51" cy="391.15" r="98.59"/><path id="Tracé_1684" class="cls-1" d="m1287.2,1057.48l.03-398.62c-.11-22.56,18.09-40.95,40.65-41.06,22.56-.11,40.95,18.09,41.06,40.65,0,.14,0,.27,0,.41v3.18"/><path id="Tracé_1724" class="cls-4" d="m1415.48,439.39h503.94"/><path id="Tracé_1685" class="cls-1" d="m1496.83,775.27c0,22.56,18.29,40.85,40.85,40.85s40.85-18.29,40.85-40.85v-209.65"/><path id="Tracé_1686" class="cls-1" d="m1370.63,774.5c0,92.26,74.79,167.05,167.05,167.05s167.05-74.79,167.05-167.05h0v-407.13"/><line id="Ligne_110" class="cls-1" x1="1578.54" y1="775.27" x2="1287.2" y2="775.27"/><line id="Ligne_111" class="cls-1" x1="1578.54" y1="662.04" x2="1287.23" y2="662.04"/><path id="Tracé_1687" class="cls-1" d="m1125.47,661.96h34.32v-4.94c0-92.26,74.79-167.05,167.05-167.05s167.05,74.79,167.05,167.05h0v5.9"/><path id="Tracé_1688" class="cls-1" d="m829.34,998.16v-4.2c0-78.58,63.7-142.29,142.29-142.29s142.29,63.7,142.29,142.29v4.2"/><path id="Tracé_1689" class="cls-1" d="m1002.61,998.16v-4.2c.21-78.58,64.08-142.12,142.67-141.91,78.29.21,141.7,63.62,141.91,141.91v4.2"/><path id="Tracé_1690" class="cls-1" d="m1177.01,998.16v-4.2c.04-78.58,63.78-142.26,142.36-142.22,78.53.04,142.18,63.69,142.22,142.22v4.2"/><line id="Ligne_112" class="cls-1" x1="1159.79" y1="661.96" x2="1159.79" y2="852.51"/><path id="Tracé_1691" class="cls-1" d="m1466.68,565.62h452.67"/><line id="Ligne_113" class="cls-1" x1="1704.74" y1="662.04" x2="1920" y2="662.04"/><line id="Ligne_114" class="cls-1" x1="1704.74" y1="775.27" x2="1920" y2="775.27"/><path id="Tracé_1692" class="cls-1" d="m-.2,998.16h1920.19"/><path id="Tracé_1693" class="cls-1" d="m1526.4,154.09v119.16c0,22.56,18.29,40.85,40.85,40.85s40.85-18.29,40.85-40.85v-29.13"/><path id="Tracé_1694" class="cls-1" d="m1400.2,68.13v204.33c0,92.26,74.79,167.05,167.05,167.05s167.05-74.79,167.05-167.05v-28.35"/><path id="Tracé_1725" class="cls-4" d="m1526.4,244.11h393.21"/><line id="Ligne_116" class="cls-1" x1="1230.79" y1="117.09" x2="1400.07" y2="117.09"/><line id="Ligne_117" class="cls-1" x1="1230.66" y1="244.11" x2="1400.2" y2="244.11"/><line id="Ligne_118" class="cls-1" x1="1125.71" y1="851.67" x2="1125.71" y2="661.96"/><path id="Tracé_1695" class="cls-1" d="m1822.57,68.05v2.49c.16,46.64-37.53,84.58-84.17,84.74s-84.58-37.53-84.74-84.17c0-.19,0-.38,0-.57v-2.5"/><path id="Tracé_1696" class="cls-1" d="m1722.92,68.05v2.49c0,46.64-37.81,84.45-84.45,84.45s-84.45-37.81-84.45-84.45v-2.5"/><path id="Tracé_1697" class="cls-1" d="m1623.27,68.05v2.49c.17,46.64-37.51,84.59-84.15,84.76s-84.59-37.51-84.76-84.15c0-.2,0-.4,0-.6v-2.5"/><line id="Ligne_119" class="cls-1" x1="829.34" y1="775.27" x2="1159.79" y2="775.27"/><line id="Ligne_120" class="cls-1" x1="-.2" y1="1057.48" x2="1920" y2="1057.48"/></g></g><g id="W_menu"><g id="Tracé_1722"><path class="cls-3" d="m-.25,0h1920.25v70H-.25V0Z"/><path class="cls-5" d="m2.75,3v64h1914.25V3H2.75M-.25,0h1920.25v70H-.25V0Z"/></g></g></svg>