<?xml version="1.0" encoding="UTF-8"?><svg id="Calque_1" xmlns="http://www.w3.org/2000/svg" xmlns:xlink="http://www.w3.org/1999/xlink" viewBox="0 0 1920 926.89"><defs><style>.cls-1{stroke-miterlimit:10;}.cls-1,.cls-2,.cls-3{fill:none;}.cls-1,.cls-3{stroke:#003caa;stroke-width:3px;}.cls-4{clip-path:url(#clippath);}.cls-2{stroke-width:0px;}.cls-5{clip-path:url(#clippath-1);}.cls-6{clip-path:url(#clippath-2);}</style><clipPath id="clippath"><rect class="cls-2" x="992.35" y="154.78" width="376.78" height="535.74"/></clipPath><clipPath id="clippath-1"><rect class="cls-2" x="1353.93" y="477.29" width="696.54" height="3"/></clipPath><clipPath id="clippath-2"><rect class="cls-2" x="1353.93" y="548.29" width="696.54" height="3"/></clipPath></defs><g id="Groupe_3053"><g id="Groupe_3044"><path id="Tracé_1649" class="cls-1" d="m77.14,354.92h2.22c41.45,0,75.05,33.6,75.05,75.05s-33.6,75.05-75.05,75.05h-2.22"/><path id="Tracé_1650" class="cls-1" d="m77.14,446.62h2.22c41.45.03,75.03,33.65,75,75.1-.03,41.41-33.59,74.98-75,75h-2.22"/><path id="Tracé_1651" class="cls-1" d="m77.14,538.31h2.22c41.45.03,75.03,33.65,75,75.1-.03,41.41-33.59,74.98-75,75h-2.22"/><path id="Tracé_1652" class="cls-1" d="m77.14-.54v928.42"/><line id="Ligne_90" class="cls-1" x1="45.85" y1=".54" x2="45.85" y2="929.02"/></g></g><g id="Groupe_3049"><g class="cls-4"><g id="Groupe_3048"><path id="Tracé_1662" class="cls-1" d="m1277.57,154.79l-4.32,397.11c0,14.16-11.48,25.64-25.64,25.64-14.16,0-25.64-11.48-25.64-25.64v-2"/><path id="Tracé_1663" class="cls-1" d="m1141.71,478.84c0-14.16-11.48-25.64-25.64-25.64s-25.64,11.48-25.64,25.64v210.8h-79.2"/><path id="Tracé_1664" class="cls-1" d="m1220.92,479.33c0-57.9-46.93-104.85-104.83-104.85s-104.85,46.93-104.85,104.83c0,0,0,.02,0,.02v210.23"/><line id="Ligne_101" class="cls-1" x1="1090.43" y1="549.91" x2="1273.26" y2="549.91"/><line id="Ligne_102" class="cls-3" x1="1090.43" y1="478.84" x2="1273.28" y2="478.84"/><path id="Tracé_1665" class="cls-3" d="m1143.55,549.36v3.7c0,57.9,46.95,104.84,104.85,104.83,57.89,0,104.82-46.94,104.83-104.83V154.79"/></g></g></g><g id="Groupe_3051"><g class="cls-5"><g id="Groupe_3050"><line id="Ligne_103" class="cls-1" x1="1353.93" y1="478.79" x2="2050.47" y2="478.79"/></g></g></g><g id="Groupe_3052"><g class="cls-6"><g id="Groupe_3050-2"><line id="Ligne_103-2" class="cls-1" x1="1353.93" y1="549.79" x2="2050.47" y2="549.79"/></g></g></g></svg>