<?xml version="1.0" encoding="UTF-8"?><svg id="Calque_1" xmlns="http://www.w3.org/2000/svg" viewBox="0 0 1920 1027.49"><defs><style>.cls-1{stroke-miterlimit:10;stroke-width:3px;}.cls-1,.cls-2{fill:none;stroke:#003caa;}.cls-2{stroke-miterlimit:10;stroke-width:3px;}</style></defs><g id="Groupe_3053"><g id="Groupe_3044"><path id="Tracé_1652" class="cls-2" d="m77.14,1026.94v928.42"/></g></g><g id="Groupe_3047"><g id="Groupe_3046"><line id="Ligne_91" class="cls-2" x1="764.95" y1="911.4" x2="1375.68" y2="911.4"/><path id="Tracé_1653" class="cls-2" d="m1203.32,712.28c37.28,0,67.49,30.22,67.49,67.49s-30.22,67.49-67.49,67.49-67.49-30.22-67.49-67.49h0c0-37.28,30.22-67.49,67.49-67.49Z"/><circle id="Ellipse_21" class="cls-1" cx="1203.32" cy="779.77" r="131.62"/><path id="Tracé_1654" class="cls-2" d="m2092.92,836.26l-532.19-.04c-30.12,0-54.54-24.42-54.54-54.54s24.42-54.54,54.54-54.54h4.25"/><line id="Ligne_92" class="cls-2" x1="1267.73" y1="665" x2="1267.73" y2="-.15"/><path id="Tracé_1655" class="cls-2" d="m1716.16,556.39c30.12-.02,54.53-24.45,54.51-54.57-.02-30.1-24.41-54.5-54.51-54.51h-279.9"/><path id="Tracé_1656" class="cls-2" d="m1715.12,724.87c123.18,0,223.03-99.85,223.03-223.03s-99.85-223.03-223.03-223.03h-543.55"/><line id="Ligne_93" class="cls-2" x1="1716.16" y1="447.3" x2="1716.16" y2="836.26"/><line id="Ligne_94" class="cls-2" x1="1564.98" y1="447.3" x2="1564.98" y2="836.22"/><path id="Tracé_1657" class="cls-2" d="m1564.87,1006.36h-6.59c-123.18,0-223.03-99.85-223.03-223.03s99.86-223.03,223.03-223.03h7.87"/><line id="Ligne_95" class="cls-2" x1="1564.87" y1="1006.36" x2="2092.92" y2="1006.36"/><path id="Tracé_1658" class="cls-2" d="m1436.25,596.64V0"/><line id="Ligne_96" class="cls-2" x1="1544.82" y1="278.81" x2="1544.82"/><line id="Ligne_97" class="cls-2" x1="1702.69" y1="278.81" x2="1702.69"/><path id="Tracé_1659" class="cls-2" d="m886.82,516.91h159.08c30.12,0,54.54-24.42,54.54-54.54s-24.42-54.54-54.54-54.54h-38.89"/><path id="Tracé_1660" class="cls-2" d="m764.64,685.4h280.24c123.18,0,223.03-99.85,223.03-223.03s-99.85-223.03-223.03-223.03h-37.86"/><line id="Ligne_98" class="cls-2" x1="1007.02" y1="516.91" x2="1007.02" y2="-.15"/><line id="Ligne_99" class="cls-2" x1="837.43" y1="911.57" x2="837.43" y2="685.57"/><line id="Ligne_100" class="cls-2" x1="1007.02" y1="911.75" x2="1007.02" y2="685.39"/></g></g><g id="Groupe_3043"><g id="Groupe_de_masques_3"><line id="Ligne_89" class="cls-2" x1="1852.62" y1="-616.23" x2="1852.62" y2="327.07"/></g></g></svg>