<?xml version="1.0" encoding="UTF-8"?><svg id="Calque_1" xmlns="http://www.w3.org/2000/svg" viewBox="0 0 1920.99 1080"><defs><style>.cls-1{stroke-miterlimit:10;}.cls-1,.cls-2{fill:none;stroke:#003caa;stroke-width:3px;}</style></defs><g id="Groupe_23"><g id="Groupe_22"><line id="Ligne_8" class="cls-1" x1="1968.44" y1="1001.55" x2="-47.3" y2="1001.59"/></g></g><g id="Groupe_21"><g id="Groupe_2882"><path id="Tracé_82" class="cls-1" d="m1789.09-.82l-3.54,325.63c0,23.98-19.44,43.42-43.42,43.42s-43.42-19.44-43.42-43.42v-3.38"/><path id="Tracé_83" class="cls-1" d="m1562.79,201.08c0-23.98-19.44-43.42-43.42-43.42s-43.42,19.44-43.42,43.42v387.65H28.2s-5.39,491.28-5.39,491.28"/><path id="Tracé_84" class="cls-1" d="m1696.91,201.9c0-98.05-79.49-177.54-177.54-177.54s-177.54,79.49-177.54,177.54v386.83"/><line id="Ligne_7" class="cls-1" x1="1475.95" y1="321.42" x2="1785.55" y2="321.42"/><path id="Tracé_85" class="cls-1" d="m1923.54,321.51l-1.13,5.25c0,98.05-80.91,177.54-178.96,177.54s-177.54-79.49-177.54-177.54v-6.27"/><path id="Tracé_98" class="cls-2" d="m1475.95,201.08h309.63"/></g></g><g id="Groupe_30"><g id="Groupe_26-2"><path id="Tracé_94-2" class="cls-1" d="m54.02,1080v1479.54"/></g></g><line class="cls-1" x1="54.03" y1="1080.01" x2="54.03" y2="1001.59"/></svg>