<?xml version="1.0" encoding="UTF-8"?><svg id="Calque_1" xmlns="http://www.w3.org/2000/svg" xmlns:xlink="http://www.w3.org/1999/xlink" viewBox="0 0 73.21 69.83"><defs><style>.cls-1,.cls-2{fill:none;}.cls-3{fill:#ff6669;}.cls-4{fill:#063dd0;}.cls-2{clip-path:url(#clippath);}</style><clipPath id="clippath"><rect class="cls-1" x="6.49" y="4.8" width="60.22" height="60.22"/></clipPath></defs><g class="cls-2"><g id="Groupe_2995"><path id="Tracé_1624" class="cls-4" d="m36.6,18.07c-9.3,0-16.85,7.54-16.85,16.85s7.54,16.85,16.85,16.85,16.85-7.54,16.85-16.85c0-9.3-7.55-16.84-16.85-16.85m0,46.96c-16.63,0-30.11-13.48-30.11-30.11S19.97,4.8,36.6,4.8s30.11,13.48,30.11,30.11c-.02,16.62-13.49,30.09-30.11,30.11"/><path id="Tracé_1625" class="cls-3" d="m42.2,30.59c0,3.09-2.5,5.59-5.59,5.59-3.09,0-5.59-2.5-5.59-5.59,0-3.09,2.5-5.59,5.59-5.59h0c3.09,0,5.59,2.5,5.59,5.59"/><path id="Tracé_1626" class="cls-3" d="m39.47,44.83h-5.73c-.83,0-1.5-.67-1.5-1.5,0-.11.01-.21.03-.32l2.03-9.61h4.61l2.03,9.61c.17.81-.34,1.61-1.15,1.78-.1.02-.21.03-.32.03"/></g></g></svg>