<?xml version="1.0" encoding="UTF-8"?><svg id="Calque_1" xmlns="http://www.w3.org/2000/svg" viewBox="0 0 96.86 94.6"><defs><style>.cls-1{fill:#000061;}.cls-2{fill:#ff6669;}.cls-3{fill:#063dd0;}.cls-4{fill:#12a6a8;}.cls-5{fill:#1adee0;}</style></defs><g id="Groupe_3013"><path id="Tracé_1634" class="cls-4" d="m80.02,41.59h-8.18c-2.15-8.73-8.97-15.55-17.7-17.7v-8.17c13.17,2.4,23.47,12.71,25.88,25.87"/><path id="Tracé_1635" class="cls-5" d="m80.02,53.01c-2.4,13.17-12.71,23.47-25.88,25.88v-8.18c8.73-2.15,15.55-8.97,17.7-17.7h8.18Z"/><path id="Tracé_1636" class="cls-1" d="m42.72,70.71v8.18c-13.17-2.41-23.47-12.71-25.88-25.88h8.18c2.15,8.73,8.96,15.55,17.69,17.7"/><path id="Tracé_1637" class="cls-2" d="m42.72,15.71v8.18c-8.73,2.15-15.54,8.97-17.69,17.7h-8.18c2.41-13.17,12.71-23.47,25.88-25.87"/><path id="Tracé_1638" class="cls-3" d="m48.43,36.38c-6.03,0-10.93,4.89-10.93,10.92,0,6.03,4.89,10.93,10.92,10.93,6.03,0,10.93-4.89,10.93-10.92h0c0-6.03-4.89-10.92-10.92-10.93m0,30.45c-10.78,0-19.52-8.74-19.52-19.53s8.74-19.52,19.52-19.52,19.53,8.74,19.53,19.52c-.01,10.78-8.75,19.51-19.53,19.53"/></g></svg>