<?xml version="1.0" encoding="UTF-8" standalone="no"?>
<svg
   id="Calque_1"
   viewBox="0 0 12.859999 12.42"
   version="1.1"
   sodipodi:docname="site-web_stan_elements_m_pied-de-page-twitter.svg"
   width="12.86"
   height="12.42"
   xmlns:inkscape="http://www.inkscape.org/namespaces/inkscape"
   xmlns:sodipodi="http://sodipodi.sourceforge.net/DTD/sodipodi-0.dtd"
   xmlns="http://www.w3.org/2000/svg"
   xmlns:svg="http://www.w3.org/2000/svg">
  <sodipodi:namedview
     id="namedview307"
     pagecolor="#ffffff"
     bordercolor="#666666"
     borderopacity="1.0"
     inkscape:showpageshadow="2"
     inkscape:pageopacity="0.0"
     inkscape:pagecheckerboard="0"
     inkscape:deskcolor="#d1d1d1"
     showgrid="false" />
  <defs
     id="defs297">
    <style
       id="style295">.cls-1{fill:#fff;}.cls-2{fill:#19dee0;}</style>
  </defs>
  <g
     id="Groupe_2988"
     transform="translate(-1.08,-1.04)">
    <g
       id="Tracé_1719">
      <path
         class="cls-1"
         d="M 13.44,12.96 H 1.58 V 1.54 h 11.86 z"
         id="path299" />
      <path
         class="cls-2"
         d="M 2.08,2.04 V 12.46 H 12.94 V 2.04 H 2.08 m -1,-1 H 13.94 V 13.46 H 1.08 Z"
         id="path301" />
    </g>
    <path
       id="twitter"
       class="cls-2"
       d="m 9.51,6.39 v 0.12 c 0.01,1.46 -1.16,2.64 -2.62,2.65 -0.01,0 -0.03,0 -0.04,0 -0.51,0 -1,-0.14 -1.43,-0.41 0.07,0 0.15,0.01 0.22,0.01 0.42,0 0.83,-0.14 1.16,-0.4 -0.4,0 -0.75,-0.27 -0.87,-0.65 0.06,0 0.12,0.01 0.18,0.01 0.08,0 0.17,-0.01 0.25,-0.03 C 5.92,7.6 5.61,7.22 5.61,6.77 v 0 C 5.74,6.83 5.88,6.87 6.03,6.88 5.62,6.61 5.49,6.06 5.74,5.63 6.21,6.21 6.91,6.57 7.66,6.61 7.65,6.54 7.64,6.47 7.64,6.4 7.64,5.88 8.06,5.47 8.58,5.47 8.84,5.47 9.08,5.58 9.26,5.76 9.47,5.72 9.67,5.64 9.85,5.54 9.78,5.76 9.63,5.94 9.44,6.05 9.63,6.03 9.81,5.98 9.98,5.91 9.85,6.1 9.69,6.26 9.51,6.39 Z" />
  </g>
</svg>
