<?xml version="1.0" encoding="UTF-8" standalone="no"?>
<svg
   id="Calque_1"
   viewBox="0 0 12.859999 12.42"
   version="1.1"
   sodipodi:docname="logo_linkedin.svg"
   width="12.86"
   height="12.42"
   inkscape:export-filename="assets/images/logo_linkedin.png"
   inkscape:export-xdpi="491"
   inkscape:export-ydpi="491"
   inkscape:version="1.2.2 (b0a8486541, 2022-12-01)"
   xmlns:inkscape="http://www.inkscape.org/namespaces/inkscape"
   xmlns:sodipodi="http://sodipodi.sourceforge.net/DTD/sodipodi-0.dtd"
   xmlns="http://www.w3.org/2000/svg"
   xmlns:svg="http://www.w3.org/2000/svg">
  <sodipodi:namedview
     id="namedview20"
     pagecolor="#ffffff"
     bordercolor="#666666"
     borderopacity="1.0"
     inkscape:showpageshadow="2"
     inkscape:pageopacity="0.0"
     inkscape:pagecheckerboard="0"
     inkscape:deskcolor="#d1d1d1"
     showgrid="false"
     inkscape:zoom="58.896552"
     inkscape:cx="6.4435012"
     inkscape:cy="6.2142857"
     inkscape:window-width="2048"
     inkscape:window-height="1083"
     inkscape:window-x="0"
     inkscape:window-y="0"
     inkscape:window-maximized="1"
     inkscape:current-layer="Calque_1" />
  <defs
     id="defs7">
    <style
       id="style2">.cls-1,.cls-2{fill:none;}.cls-3{fill:#fff;}.cls-4{fill:#063dd0;}.cls-2{clip-path:url(#clippath);}</style>
    <clipPath
       id="clippath">
      <rect
         class="cls-1"
         x="5.2199998"
         y="5.0700002"
         width="4.6799998"
         height="4.3000002"
         id="rect4" />
    </clipPath>
  </defs>
  <g
     id="Groupe_2986"
     transform="translate(-1.08,-1.04)">
    <g
       id="Tracé_1720">
      <path
         class="cls-3"
         d="M 13.44,12.96 H 1.58 V 1.54 h 11.86 z"
         id="path9" />
      <path
         class="cls-4"
         d="M 2.08,2.04 V 12.46 H 12.94 V 2.04 H 2.08 m -1,-1 H 13.94 V 13.46 H 1.08 Z"
         id="path11" />
    </g>
    <g
       class="cls-2"
       clip-path="url(#clippath)"
       id="g16">
      <g
         id="Groupe_2850">
        <path
           id="Tracé_1473"
           class="cls-4"
           d="M 6.25,9.37 H 5.34 V 6.45 H 6.25 Z M 5.77,6.08 v 0 C 5.49,6.1 5.25,5.89 5.23,5.61 c 0,-0.01 0,-0.03 0,-0.04 0,-0.28 0.23,-0.51 0.52,-0.51 0.01,0 0.03,0 0.04,0 0.28,-0.02 0.52,0.19 0.54,0.47 0.02,0.28 -0.19,0.52 -0.47,0.54 -0.03,0 -0.05,0 -0.08,0 M 9.91,9.36 H 8.87 V 7.85 C 8.87,7.45 8.71,7.19 8.35,7.19 8.13,7.19 7.93,7.34 7.86,7.55 7.84,7.63 7.83,7.71 7.84,7.79 V 9.37 H 6.82 c 0,0 0.01,-2.68 0,-2.92 H 7.84 V 6.91 C 8.02,6.58 8.38,6.39 8.75,6.42 c 0.65,0 1.16,0.42 1.16,1.32 z" />
      </g>
    </g>
  </g>
</svg>
