<?xml version="1.0" encoding="UTF-8" standalone="no"?>
<svg
   id="Calque_1"
   viewBox="0 0 12.85 12.41"
   version="1.1"
   sodipodi:docname="logo_youtube.svg"
   width="12.85"
   height="12.41"
   inkscape:version="1.2.2 (b0a8486541, 2022-12-01)"
   xmlns:inkscape="http://www.inkscape.org/namespaces/inkscape"
   xmlns:sodipodi="http://sodipodi.sourceforge.net/DTD/sodipodi-0.dtd"
   xmlns="http://www.w3.org/2000/svg"
   xmlns:svg="http://www.w3.org/2000/svg">
  <sodipodi:namedview
     id="namedview513"
     pagecolor="#ffffff"
     bordercolor="#666666"
     borderopacity="1.0"
     inkscape:showpageshadow="2"
     inkscape:pageopacity="0.0"
     inkscape:pagecheckerboard="0"
     inkscape:deskcolor="#d1d1d1"
     showgrid="false"
     inkscape:zoom="58.896552"
     inkscape:cx="6.4435012"
     inkscape:cy="6.2142857"
     inkscape:window-width="2048"
     inkscape:window-height="1083"
     inkscape:window-x="0"
     inkscape:window-y="0"
     inkscape:window-maximized="1"
     inkscape:current-layer="Calque_1" />
  <defs
     id="defs483">
    <style
       id="style475">.cls-1,.cls-2,.cls-3,.cls-4,.cls-5{fill:none;}.cls-2{clip-path:url(#clippath-1);}.cls-6{fill:#fff;}.cls-7{fill:#ff6668;}.cls-3{stroke-width:3px;}.cls-3,.cls-4{stroke:#ff6668;}.cls-5{clip-path:url(#clippath);}</style>
    <clipPath
       id="clippath">
      <rect
         class="cls-1"
         x="4.3899999"
         y="5.1799998"
         width="6.1399999"
         height="4.23"
         id="rect477" />
    </clipPath>
    <clipPath
       id="clippath-1">
      <rect
         class="cls-1"
         x="4.3899999"
         y="5.1799998"
         width="6.1399999"
         height="4.23"
         id="rect480" />
    </clipPath>
  </defs>
  <g
     id="Groupe_2985"
     transform="translate(-1.0799999,-1.04)">
    <g
       id="Groupe_2878">
      <g
         id="Groupe_2855">
        <g
           id="Rectangle_244">
          <rect
             class="cls-6"
             x="1.08"
             y="1.04"
             width="12.85"
             height="12.41"
             id="rect485" />
          <rect
             class="cls-3"
             x="2.5799999"
             y="2.54"
             width="9.8500004"
             height="9.4099998"
             id="rect487" />
        </g>
        <rect
           id="Rectangle_547"
           class="cls-1"
           x="5.4400001"
           y="5.23"
           width="4.1399999"
           height="4.1399999" />
      </g>
      <g
         id="Groupe_2877">
        <g
           class="cls-5"
           clip-path="url(#clippath)"
           id="g494">
          <g
             id="Groupe_2851">
            <path
               id="Tracé_1474"
               class="cls-7"
               d="m 10.42,5.84 c 0,0 0,-0.05 -0.02,-0.07 0,0 0,-0.02 -0.01,-0.03 C 10.31,5.5 10.09,5.34 9.83,5.34 H 9.87 C 9.07,5.23 8.26,5.18 7.45,5.18 6.64,5.18 5.83,5.24 5.03,5.34 h 0.04 c -0.25,0 -0.48,0.16 -0.56,0.4 v 0.03 c 0,0 -0.02,0.05 -0.02,0.07 -0.07,0.48 -0.1,0.97 -0.11,1.45 0,0.49 0.04,0.97 0.11,1.45 0,0.02 0,0.05 0.01,0.07 0,0.01 0,0.02 0,0.03 0.08,0.24 0.3,0.4 0.56,0.4 H 5.02 C 5.82,9.35 6.63,9.4 7.44,9.4 8.25,9.4 9.06,9.34 9.86,9.24 H 9.82 c 0.25,0 0.48,-0.16 0.56,-0.4 0,-0.01 0,-0.02 0.01,-0.03 0,-0.02 0.01,-0.05 0.01,-0.07 0.07,-0.48 0.1,-0.97 0.11,-1.45 0,-0.49 -0.04,-0.97 -0.11,-1.45 M 8.35,7.42 7.11,8.32 c 0,0 -0.06,0.03 -0.09,0.03 C 7,8.35 6.97,8.35 6.95,8.33 6.9,8.3 6.87,8.25 6.87,8.2 V 6.4 c 0,-0.08 0.07,-0.15 0.15,-0.15 0.03,0 0.06,0 0.09,0.03 l 1.24,0.9 c 0.07,0.05 0.08,0.14 0.03,0.21 0,0.01 -0.02,0.02 -0.03,0.03" />
          </g>
        </g>
      </g>
    </g>
    <g
       id="Groupe_2879">
      <g
         id="Groupe_2855-2">
        <g
           id="Rectangle_244-2">
          <rect
             class="cls-6"
             x="1.08"
             y="1.04"
             width="12.85"
             height="12.41"
             id="rect498" />
          <rect
             class="cls-4"
             x="1.58"
             y="1.54"
             width="11.85"
             height="11.41"
             id="rect500" />
        </g>
        <rect
           id="Rectangle_547-2"
           class="cls-1"
           x="5.4400001"
           y="5.23"
           width="4.1399999"
           height="4.1399999" />
      </g>
      <g
         id="Groupe_2877-2">
        <g
           class="cls-2"
           clip-path="url(#clippath-1)"
           id="g507">
          <g
             id="Groupe_2851-2">
            <path
               id="Tracé_1474-2"
               class="cls-7"
               d="m 10.42,5.84 c 0,0 0,-0.05 -0.02,-0.07 0,0 0,-0.02 -0.01,-0.03 C 10.31,5.5 10.09,5.34 9.83,5.34 H 9.87 C 9.07,5.23 8.26,5.18 7.45,5.18 6.64,5.18 5.83,5.24 5.03,5.34 h 0.04 c -0.25,0 -0.48,0.16 -0.56,0.4 v 0.03 c 0,0 -0.02,0.05 -0.02,0.07 -0.07,0.48 -0.1,0.97 -0.11,1.45 0,0.49 0.04,0.97 0.11,1.45 0,0.02 0,0.05 0.01,0.07 0,0.01 0,0.02 0,0.03 0.08,0.24 0.3,0.4 0.56,0.4 H 5.02 C 5.82,9.35 6.63,9.4 7.44,9.4 8.25,9.4 9.06,9.34 9.86,9.24 H 9.82 c 0.25,0 0.48,-0.16 0.56,-0.4 0,-0.01 0,-0.02 0.01,-0.03 0,-0.02 0.01,-0.05 0.01,-0.07 0.07,-0.48 0.1,-0.97 0.11,-1.45 0,-0.49 -0.04,-0.97 -0.11,-1.45 M 8.35,7.42 7.11,8.32 c 0,0 -0.06,0.03 -0.09,0.03 C 7,8.35 6.97,8.35 6.95,8.33 6.9,8.3 6.87,8.25 6.87,8.2 V 6.4 c 0,-0.08 0.07,-0.15 0.15,-0.15 0.03,0 0.06,0 0.09,0.03 l 1.24,0.9 c 0.07,0.05 0.08,0.14 0.03,0.21 0,0.01 -0.02,0.02 -0.03,0.03" />
          </g>
        </g>
      </g>
    </g>
  </g>
</svg>
