<?xml version="1.0" encoding="UTF-8"?><svg id="Calque_1" xmlns="http://www.w3.org/2000/svg" viewBox="0 0 64.91 59.87"><defs><style>.cls-1{fill:#000061;}.cls-2{fill:#ff6669;}.cls-3{fill:#d44d54;}.cls-4{fill:#063dd0;}.cls-5{fill:#12a6a8;}.cls-6{fill:#1adee0;}</style></defs><g id="Groupe_3007"><g id="Groupe_3002"><g id="Groupe_3001"><g id="Groupe_2937"><path id="Tracé_1567" class="cls-1" d="m30.76,50.54c-10.3-.01-18.66-8.36-18.67-18.67h8.63c0,5.54,4.5,10.03,10.04,10.04v8.63Z"/><path id="Tracé_1568" class="cls-2" d="m20.72,28.2h-8.63c.01-10.3,8.36-18.66,18.67-18.67v8.63c-5.54,0-10.03,4.5-10.04,10.04"/><path id="Tracé_1569" class="cls-3" d="m17.01,10.13c0,2.51-2.03,4.54-4.54,4.54s-4.54-2.03-4.54-4.54c0-2.51,2.03-4.54,4.54-4.54,2.51,0,4.54,2.03,4.54,4.54h0"/><path id="Tracé_1570" class="cls-1" d="m56.98,9.97c0,2.51-2.03,4.54-4.54,4.54s-4.54-2.03-4.54-4.54,2.03-4.54,4.54-4.54t0,0c2.51,0,4.54,2.03,4.54,4.54"/><path id="Tracé_1571" class="cls-5" d="m56.98,49.9c0,2.51-2.03,4.54-4.54,4.54s-4.54-2.03-4.54-4.54c0-2.51,2.03-4.54,4.54-4.54s4.54,2.03,4.54,4.54h0"/><path id="Tracé_1572" class="cls-4" d="m17.01,49.9c0,2.51-2.03,4.54-4.54,4.54-2.51,0-4.54-2.03-4.54-4.54,0-2.51,2.03-4.54,4.54-4.54s4.54,2.03,4.54,4.54h0"/><path id="Tracé_1573" class="cls-4" d="m53.09,28.2h-8.63c0-5.54-4.5-10.04-10.04-10.04v-8.63c10.31.01,18.66,8.36,18.67,18.67"/><path id="Tracé_1574" class="cls-6" d="m34.42,50.54v-8.63c5.54,0,10.03-4.5,10.04-10.04h8.63c-.01,10.31-8.36,18.66-18.67,18.67"/></g></g></g></g></svg>