<?xml version="1.0" encoding="UTF-8"?><svg id="Calque_1" xmlns="http://www.w3.org/2000/svg" viewBox="0 0 73.21 69.83"><defs><style>.cls-1{fill:#ff6669;}.cls-2{fill:#063dd0;}.cls-3{fill:#1adee0;}</style></defs><g id="Groupe_2994"><g id="Groupe_2941"><path id="Tracé_1575" class="cls-2" d="m36.89,62.75c-15.08-.02-27.29-12.24-27.31-27.31h12.62c0,8.11,6.58,14.68,14.69,14.69v12.62Z"/><path id="Tracé_1576" class="cls-2" d="m64.2,35.44h-12.62c0-8.11-6.58-14.68-14.69-14.69v-12.62c15.08.02,27.3,12.23,27.31,27.31"/><path id="Tracé_1577" class="cls-1" d="m5.23,30.61c.02-15.07,12.23-27.29,27.31-27.31v12.62c-8.11,0-14.68,6.58-14.69,14.69H5.23Z"/><path id="Tracé_1578" class="cls-3" d="m40.66,66.53v-12.62c8.11,0,14.68-6.58,14.69-14.69h12.62c-.02,15.08-12.23,27.3-27.31,27.31"/></g></g></svg>