<?xml version="1.0" encoding="UTF-8"?><svg id="Calque_1" xmlns="http://www.w3.org/2000/svg" xmlns:xlink="http://www.w3.org/1999/xlink" viewBox="0 0 393 6509.61"><defs><style>.cls-1,.cls-2,.cls-3,.cls-4,.cls-5,.cls-6,.cls-7,.cls-8{fill:none;}.cls-2{clip-path:url(#clippath-5);}.cls-3{clip-path:url(#clippath-3);}.cls-4{clip-path:url(#clippath-4);}.cls-5{clip-path:url(#clippath-2);}.cls-6{clip-path:url(#clippath-1);}.cls-7{stroke:#003caa;stroke-miterlimit:10;stroke-width:2px;}.cls-8{clip-path:url(#clippath);}</style><clipPath id="clippath"><rect class="cls-1" x="-1.07" y="309.72" width="395.43" height="3.65"/></clipPath><clipPath id="clippath-1"><rect class="cls-1" x="-1.07" y="429.4" width="395.43" height="3.65"/></clipPath><clipPath id="clippath-2"><rect class="cls-1" x="0" y="703.4" width="393.19" height="130.03"/></clipPath><clipPath id="clippath-3"><rect class="cls-1" x="0" y="703.4" width="393.19" height="130.03"/></clipPath><clipPath id="clippath-4"><rect class="cls-1" x="0" y="703.4" width="393.19" height="130.03"/></clipPath><clipPath id="clippath-5"><rect class="cls-1" y="3006.72" width="393" height="3.65"/></clipPath></defs><g id="Groupe_2963"><g class="cls-8"><g id="Groupe_2962-2"><line id="Ligne_57-2" class="cls-7" x1="394.35" y1="311.53" x2="-1.07" y2="311.57"/></g></g></g><g id="Groupe_2964"><g class="cls-6"><g id="Groupe_2962-3"><line id="Ligne_57-3" class="cls-7" x1="394.35" y1="431.2" x2="-1.07" y2="431.24"/></g></g></g><g id="Groupe_2973"><g id="Groupe_2968"><g class="cls-5"><g id="Groupe_2967"><line id="Ligne_58" class="cls-7" y1="832.17" x2="393.19" y2="832.17"/><line id="Ligne_59" class="cls-7" y1="730.98" x2="393.19" y2="730.98"/><line id="Ligne_60" class="cls-7" y1="704.52" x2="393.19" y2="704.52"/></g></g></g><line id="Ligne_61" class="cls-7" x1="263.4" y1="832.17" x2="263.4" y2="704.52"/><g id="Groupe_2970"><g class="cls-3"><g id="Groupe_2969"><line id="Ligne_62" class="cls-7" x1="263.4" y1="832.17" x2="263.4" y2="704.54"/><line id="Ligne_63" class="cls-7" x1="226.61" y1="832.17" x2="226.61" y2="704.54"/><line id="Ligne_64" class="cls-7" x1="160.82" y1="832.17" x2="160.82" y2="730.98"/></g></g></g><line id="Ligne_65" class="cls-7" x1="226.61" y1="768.35" x2="160.82" y2="768.35"/><g id="Groupe_2972"><g class="cls-4"><g id="Groupe_2971"><path id="Tracé_1602" class="cls-7" d="m314.06,832.3c-27.98,0-50.66-22.68-50.66-50.66,0-27.98,22.68-50.66,50.66-50.66s50.66,22.68,50.66,50.66h0c-.03,27.97-22.69,50.63-50.66,50.66Zm0-77.3c-14.71,0-26.64,11.92-26.64,26.64s11.92,26.64,26.64,26.64,26.64-11.92,26.64-26.63c-.02-14.7-11.93-26.62-26.64-26.64Z"/></g></g></g></g><g id="Groupe_2977"><g class="cls-2"><g id="Groupe_2962-4"><line id="Ligne_57-4" class="cls-7" x1="393" y1="3008.53" y2="3008.57"/></g></g></g></svg>