<?xml version="1.0" encoding="UTF-8"?><svg id="Calque_1" xmlns="http://www.w3.org/2000/svg" viewBox="0 0 73.21 69.83"><defs><style>.cls-1{fill:#000061;}.cls-2{fill:#ff6669;}.cls-3{fill:#d44d54;}.cls-4{fill:#063dd0;}.cls-5{fill:#12a6a8;}.cls-6{fill:#1adee0;}</style></defs><g id="Groupe_2936"><g id="Groupe_2936-2"><path id="Tracé_1559" class="cls-1" d="m33.84,65.73c-15.54-.02-28.13-12.61-28.15-28.15h13.01c0,8.36,6.78,15.13,15.14,15.14v13.01Z"/><path id="Tracé_1560" class="cls-2" d="m18.7,32.05H5.69c.02-15.54,12.61-28.13,28.15-28.15v13.01c-8.36,0-15.13,6.78-15.14,15.14"/><path id="Tracé_1561" class="cls-3" d="m32.77,23.29c0,3.78-3.07,6.85-6.85,6.85-3.78,0-6.85-3.07-6.85-6.85,0-3.78,3.07-6.85,6.85-6.85s6.85,3.07,6.85,6.85h0"/><path id="Tracé_1562" class="cls-4" d="m32.77,47.29c0,3.78-3.07,6.85-6.85,6.85-3.78,0-6.85-3.07-6.85-6.85,0-3.78,3.07-6.85,6.85-6.85s6.85,3.07,6.85,6.85h0"/><path id="Tracé_1563" class="cls-4" d="m67.52,32.05h-13.01c0-8.36-6.78-15.13-15.14-15.14V3.91c15.54.02,28.13,12.61,28.15,28.15"/><path id="Tracé_1564" class="cls-6" d="m39.37,65.73v-13.01c8.36,0,15.13-6.78,15.14-15.14h13.01c-.02,15.54-12.61,28.13-28.15,28.15"/><path id="Tracé_1565" class="cls-1" d="m54.09,23.29c0,3.78-3.07,6.85-6.85,6.85-3.78,0-6.85-3.07-6.85-6.85s3.07-6.85,6.85-6.85h0c3.78,0,6.85,3.07,6.85,6.85"/><path id="Tracé_1566" class="cls-5" d="m54.09,47.29c0,3.78-3.07,6.85-6.85,6.85-3.78,0-6.85-3.07-6.85-6.85,0-3.78,3.07-6.85,6.85-6.85s6.85,3.07,6.85,6.85h0"/></g></g></svg>