<?xml version="1.0" encoding="UTF-8"?><svg id="Calque_1" xmlns="http://www.w3.org/2000/svg" xmlns:xlink="http://www.w3.org/1999/xlink" viewBox="0 0 65.04 29.06"><defs><style>.cls-1,.cls-2{fill:none;}.cls-3{fill:#000061;}.cls-4{fill:#063dd0;}.cls-2{clip-path:url(#clippath);}</style><clipPath id="clippath"><rect class="cls-1" x="6.24" y="7.34" width="52.56" height="14.39"/></clipPath></defs><g id="Groupe_2987"><g class="cls-2"><g id="Groupe_9"><path id="Tracé_8" class="cls-3" d="m58.8,21.73h-3.32v-6.88c0-2.1-1.71-3.81-3.81-3.8-2.1,0-3.8,1.7-3.8,3.8v1.66h-3.33v-1.66c0-3.94,3.19-7.13,7.12-7.14,3.94,0,7.13,3.19,7.14,7.12h0v6.89Z"/><rect id="Rectangle_15" class="cls-4" x="44.54" y="7.37" width="3.33" height="14.36"/><path id="Tracé_9" class="cls-3" d="m9.57,11.75c0,.6.49,1.08,1.09,1.09h0v3.33h0c-2.44-.04-4.38-2.04-4.35-4.48.04-2.39,1.96-4.31,4.35-4.35h6.1v3.33h-6.1c-.6,0-1.09.49-1.09,1.09"/><path id="Tracé_10" class="cls-4" d="m16.89,17.24c0,2.44-1.98,4.41-4.41,4.41h-6.1v-3.33h6.1c.6,0,1.09-.48,1.09-1.08,0,0,0,0,0,0,0-.58-.47-1.06-1.05-1.07v-3.33c2.42.02,4.37,1.99,4.37,4.4"/><rect id="Rectangle_16" class="cls-3" x="21.67" y="7.55" width="3.33" height="14.15"/><path id="Tracé_11" class="cls-4" d="m35.19,21.66c-3.87,0-7.01-3.14-7.01-7.01s3.14-7.01,7.01-7.01c3.87,0,7.01,3.14,7.01,7.01h0c0,3.87-3.14,7.01-7.01,7.01m0-10.7c-2.04,0-3.69,1.65-3.69,3.68,0,2.04,1.65,3.69,3.68,3.69,2.04,0,3.69-1.65,3.69-3.68h0c0-2.04-1.65-3.69-3.69-3.69"/><rect id="Rectangle_17" class="cls-4" x="18.69" y="7.34" width="9.28" height="3.33"/><rect id="Rectangle_18" class="cls-3" x="38.87" y="7.37" width="3.33" height="14.33"/></g></g></g></svg>