<?xml version="1.0" encoding="UTF-8"?><svg id="Calque_1" xmlns="http://www.w3.org/2000/svg" viewBox="0 0 81.09 73.45"><defs><style>.cls-1{fill:#000061;}.cls-2{fill:#ff6669;}.cls-3{fill:#063dd0;}.cls-4{fill:#12a6a8;}.cls-5{fill:#1adee0;}</style></defs><g id="Groupe_2975"><path id="Tracé_1609" class="cls-4" d="m72.84,30.88h-8.36c-2.2-8.92-9.17-15.89-18.09-18.09V4.43c13.46,2.46,23.99,12.99,26.45,26.45"/><path id="Tracé_1610" class="cls-5" d="m72.84,42.56c-2.46,13.46-12.99,23.99-26.45,26.45v-8.36c8.92-2.2,15.89-9.17,18.09-18.09h8.36Z"/><path id="Tracé_1611" class="cls-1" d="m34.71,60.65v8.37c-13.46-2.46-23.99-12.99-26.45-26.45h8.36c2.2,8.92,9.16,15.89,18.09,18.09"/><path id="Tracé_1612" class="cls-2" d="m34.71,4.43v8.36c-8.92,2.2-15.89,9.17-18.09,18.09h-8.36c2.46-13.46,12.99-23.99,26.45-26.45"/><path id="Tracé_1613" class="cls-3" d="m40.55,25.56c-6.17,0-11.17,5-11.17,11.17,0,6.17,5,11.17,11.17,11.17,6.17,0,11.17-5,11.17-11.17h0c0-6.17-5-11.16-11.17-11.17m0,31.13c-11.02,0-19.96-8.94-19.96-19.96s8.94-19.96,19.96-19.96,19.96,8.94,19.96,19.96c-.01,11.02-8.94,19.94-19.96,19.96"/></g></svg>