<?xml version="1.0" encoding="UTF-8"?><svg id="Calque_1" xmlns="http://www.w3.org/2000/svg" xmlns:xlink="http://www.w3.org/1999/xlink" viewBox="0 0 147.61 51.74"><defs><style>.cls-1,.cls-2{fill:none;}.cls-3{fill:#000061;}.cls-4{fill:#063dd0;}.cls-2{clip-path:url(#clippath);}</style><clipPath id="clippath"><rect class="cls-1" x="5.81" y="7.25" width="136" height="37.24"/></clipPath></defs><g id="Groupe_2989"><g id="Groupe_2886"><g class="cls-2"><g id="Groupe_2885"><path id="Tracé_1505" class="cls-3" d="m141.81,44.49h-8.6v-17.8c0-5.44-4.41-9.85-9.85-9.85s-9.85,4.41-9.85,9.85v4.3h-8.6v-4.3c-.15-10.19,7.99-18.57,18.18-18.72,10.19-.15,18.57,7.99,18.72,18.18,0,.18,0,.36,0,.54v17.8Z"/><rect id="Rectangle_261" class="cls-4" x="104.9" y="7.33" width="8.6" height="37.16"/><path id="Tracé_1506" class="cls-3" d="m14.41,18.67c0,1.55,1.26,2.81,2.82,2.82h.02v8.6h-.02c-6.31-.12-11.32-5.33-11.21-11.63.11-6.14,5.07-11.09,11.21-11.21h15.79v8.6h-15.79c-1.56,0-2.82,1.26-2.82,2.82"/><path id="Tracé_1507" class="cls-4" d="m33.36,32.89c0,6.31-5.11,11.42-11.42,11.42H6.15v-8.6h15.79c1.55,0,2.81-1.26,2.82-2.81,0,0,0,0,0,0,0-1.51-1.2-2.74-2.71-2.78v-8.63c6.26.06,11.3,5.14,11.31,11.4"/><rect id="Rectangle_262" class="cls-3" x="45.73" y="7.79" width="8.6" height="36.63"/><path id="Tracé_1508" class="cls-4" d="m80.7,44.31c-10.02,0-18.14-8.12-18.14-18.14s8.12-18.14,18.14-18.14c10.02,0,18.14,8.12,18.14,18.14h0c-.01,10.02-8.13,18.13-18.14,18.14m0-27.68c-5.27,0-9.54,4.27-9.54,9.54s4.27,9.54,9.54,9.54,9.54-4.27,9.54-9.54h0c0-5.27-4.27-9.53-9.54-9.54"/><rect id="Rectangle_263" class="cls-4" x="38.02" y="7.27" width="24.01" height="8.6"/><rect id="Rectangle_264" class="cls-3" x="90.24" y="7.33" width="8.6" height="37.09"/></g></g></g></g></svg>