<?xml version="1.0" encoding="UTF-8"?><svg id="Calque_1" xmlns="http://www.w3.org/2000/svg" viewBox="0 0 143.03 45.61"><defs><style>.cls-1{fill:#000061;}.cls-2{fill:#063dd0;}</style></defs><g id="Groupe_2885"><path id="Tracé_1505" class="cls-1" d="m133.73,38.92h-7.89v-16.32c0-4.99-4.04-9.03-9.03-9.03s-9.03,4.04-9.03,9.03v3.95h-7.89v-3.95c0-9.35,7.58-16.92,16.92-16.92s16.92,7.58,16.92,16.92v16.32Z"/><rect id="Rectangle_261" class="cls-2" x="99.88" y="4.84" width="7.89" height="34.08"/><path id="Tracé_1506" class="cls-1" d="m16.87,15.24c0,1.43,1.16,2.58,2.58,2.58h.02v7.89h-.02c-5.79,0-10.48-4.69-10.48-10.48s4.69-10.48,10.48-10.48h14.48v7.89h-14.48c-1.43,0-2.58,1.16-2.58,2.58"/><path id="Tracé_1507" class="cls-2" d="m34.26,28.28c0,5.79-4.69,10.47-10.48,10.48h-14.48v-7.89h14.48c1.43,0,2.58-1.16,2.58-2.58,0,0,0,0,0,0,0-1.38-1.1-2.51-2.49-2.54v-7.91c5.74.05,10.37,4.71,10.39,10.46"/><rect id="Rectangle_262" class="cls-1" x="45.6" y="5.26" width="7.89" height="33.6"/><path id="Tracé_1508" class="cls-2" d="m77.68,38.76c-9.19,0-16.64-7.45-16.64-16.64s7.45-16.64,16.64-16.64c9.19,0,16.64,7.45,16.64,16.64h0c-.01,9.19-7.45,16.63-16.64,16.64m0-25.39c-4.83,0-8.75,3.92-8.75,8.75,0,4.83,3.92,8.75,8.75,8.75,4.83,0,8.75-3.92,8.75-8.75h0c0-4.83-3.92-8.74-8.75-8.75"/><rect id="Rectangle_263" class="cls-2" x="38.53" y="4.78" width="22.03" height="7.89"/><rect id="Rectangle_264" class="cls-1" x="86.43" y="4.84" width="7.89" height="34.02"/></g></svg>