<?xml version="1.0" encoding="UTF-8"?><svg id="Calque_1" xmlns="http://www.w3.org/2000/svg" xmlns:xlink="http://www.w3.org/1999/xlink" viewBox="0 0 146.79 46.93"><defs><style>.cls-1,.cls-2{fill:none;}.cls-3{fill:#000061;}.cls-4{fill:#063dd0;}.cls-2{clip-path:url(#clippath);}</style><clipPath id="clippath"><rect class="cls-1" x="4.23" y="4.53" width="138.33" height="37.87"/></clipPath></defs><g class="cls-2"><g id="Groupe_9"><path id="Tracé_8" class="cls-3" d="m142.56,42.4h-8.75v-18.1c0-5.53-4.49-10.01-10.02-10.01-5.53,0-10.01,4.48-10.01,10.01v4.38h-8.75v-4.38c-.08-10.37,8.27-18.83,18.63-18.9,10.36-.08,18.83,8.27,18.9,18.63,0,.09,0,.18,0,.27v18.1Z"/><rect id="Rectangle_15" class="cls-4" x="105.02" y="4.61" width="8.75" height="37.79"/><path id="Tracé_9" class="cls-3" d="m12.98,16.14c0,1.58,1.29,2.86,2.87,2.87h.02v8.75h-.02c-6.42,0-11.62-5.2-11.62-11.62S9.43,4.53,15.84,4.53h16.06v8.75H15.84c-1.58,0-2.86,1.29-2.87,2.87"/><path id="Tracé_10" class="cls-4" d="m32.25,30.6c0,6.41-5.2,11.61-11.61,11.62H4.58v-8.75h16.06c1.58,0,2.86-1.28,2.87-2.86,0,0,0,0,0,0,0-1.53-1.23-2.78-2.76-2.82v-8.77c6.36.07,11.49,5.23,11.5,11.59"/><rect id="Rectangle_16" class="cls-3" x="44.83" y="5.08" width="8.75" height="37.26"/><path id="Tracé_11" class="cls-4" d="m80.41,42.22c-10.19,0-18.45-8.26-18.46-18.45,0-10.19,8.26-18.45,18.45-18.46s18.45,8.26,18.46,18.45h0c-.01,10.19-8.27,18.44-18.45,18.46m0-28.16c-5.36,0-9.7,4.34-9.7,9.7s4.34,9.7,9.7,9.7c5.36,0,9.7-4.34,9.7-9.7,0-5.35-4.35-9.69-9.7-9.7"/><rect id="Rectangle_17" class="cls-4" x="36.99" y="4.54" width="24.42" height="8.75"/><rect id="Rectangle_18" class="cls-3" x="90.11" y="4.61" width="8.75" height="37.72"/></g></g></svg>