<?xml version="1.0" encoding="UTF-8"?><svg id="Calque_1" xmlns="http://www.w3.org/2000/svg" viewBox="0 0 392 851"><defs><style>.cls-1,.cls-2{fill:none;stroke:#003caa;stroke-width:2px;}.cls-2{stroke-miterlimit:10;}</style></defs><g id="Groupe_3033"><g id="Groupe_3032"><path id="Tracé_1641" class="cls-2" d="m102.85,818.5c0,9.36-7.58,16.94-16.94,16.94s-16.94-7.58-16.94-16.94V-3.18"/><path id="Tracé_1642" class="cls-2" d="m155.89,770.22c0-9.36,7.57-16.95,16.93-16.95,9.36,0,16.95,7.57,16.95,16.93v225.86"/><path id="Tracé_1643" class="cls-2" d="m103.55,770.54c.02-38.26,31.05-69.26,69.3-69.24,38.23.02,69.22,31.01,69.24,69.24v225.71"/><line id="Ligne_79" class="cls-2" x1="189.77" y1="770.22" x2="68.96" y2="770.22"/><line id="Ligne_80" class="cls-2" x1="189.77" y1="818.96" x2="68.96" y2="818.96"/><path id="Tracé_1644" class="cls-2" d="m154.67,819.25c0,38.26-31.01,69.27-69.27,69.27s-69.27-31.01-69.27-69.27V-3.18"/><line id="Ligne_83" class="cls-2" x1="396" y1="770.22" x2="242.83" y2="770.22"/><path id="Tracé_1645" class="cls-1" d="m395.54,818.96h-152.71"/></g></g></svg>