<?xml version="1.0" encoding="UTF-8"?><svg id="Calque_1" xmlns="http://www.w3.org/2000/svg" viewBox="0 0 145.85 45.61"><defs><style>.cls-1{fill:#000061;}.cls-2{fill:#063dd0;}</style></defs><g id="Groupe_2885"><path id="Tracé_1505" class="cls-1" d="m140.82,41.42h-8.6v-17.8c0-5.44-4.41-9.85-9.85-9.85s-9.85,4.41-9.85,9.85v4.3h-8.6v-4.3c-.15-10.19,7.99-18.57,18.18-18.72,10.19-.15,18.57,7.99,18.72,18.18,0,.18,0,.36,0,.54v17.8Z"/><rect id="Rectangle_261" class="cls-2" x="103.91" y="4.27" width="8.6" height="37.16"/><path id="Tracé_1506" class="cls-1" d="m13.42,15.61c0,1.55,1.26,2.81,2.82,2.82h.02v8.6h-.02c-6.31-.12-11.32-5.33-11.21-11.63.11-6.14,5.07-11.09,11.21-11.21h15.79v8.6h-15.79c-1.56,0-2.82,1.26-2.82,2.82"/><path id="Tracé_1507" class="cls-2" d="m32.37,29.83c0,6.31-5.11,11.42-11.42,11.42H5.16v-8.6h15.79c1.55,0,2.81-1.26,2.82-2.81,0,0,0,0,0,0,0-1.51-1.2-2.74-2.71-2.78v-8.63c6.26.06,11.3,5.14,11.31,11.4"/><rect id="Rectangle_262" class="cls-1" x="44.74" y="4.73" width="8.6" height="36.63"/><path id="Tracé_1508" class="cls-2" d="m79.72,41.25c-10.02,0-18.14-8.12-18.14-18.14s8.12-18.14,18.14-18.14c10.02,0,18.14,8.12,18.14,18.14h0c-.01,10.02-8.13,18.13-18.14,18.14m0-27.68c-5.27,0-9.54,4.27-9.54,9.54s4.27,9.54,9.54,9.54,9.54-4.27,9.54-9.54h0c0-5.27-4.27-9.53-9.54-9.54"/><rect id="Rectangle_263" class="cls-2" x="37.03" y="4.21" width="24.01" height="8.6"/><rect id="Rectangle_264" class="cls-1" x="89.25" y="4.27" width="8.6" height="37.09"/></g></svg>