<?xml version="1.0" encoding="UTF-8"?><svg id="Calque_1" xmlns="http://www.w3.org/2000/svg" xmlns:xlink="http://www.w3.org/1999/xlink" viewBox="0 0 393 6503.89"><defs><style>.cls-1,.cls-2,.cls-3,.cls-4,.cls-5,.cls-6,.cls-7,.cls-8,.cls-9,.cls-10{fill:none;}.cls-2{clip-path:url(#clippath-3);}.cls-3{clip-path:url(#clippath-2);}.cls-4{clip-path:url(#clippath-1);}.cls-5{isolation:isolate;}.cls-11{fill:#000061;}.cls-12{fill:#fff;}.cls-13{fill:#ff00ce;}.cls-14{fill:#ff6668;}.cls-15{fill:#063dd0;}.cls-16{fill:#19dee0;}.cls-6{stroke-width:2px;}.cls-6,.cls-8{stroke:#063dd0;}.cls-7{stroke:#19dee0;}.cls-7,.cls-8,.cls-9{stroke-width:3px;}.cls-9{stroke:#ff6668;}.cls-10{clip-path:url(#clippath);}</style><clipPath id="clippath"><rect class="cls-1" x="144" y="6473.12" width="6.14" height="4.23"/></clipPath><clipPath id="clippath-1"><rect class="cls-1" x="144" y="6473.12" width="6.14" height="4.23"/></clipPath><clipPath id="clippath-2"><rect class="cls-1" x="112.14" y="6473.03" width="4.68" height="4.3"/></clipPath><clipPath id="clippath-3"><rect class="cls-1" x="35" y="6467.04" width="52.56" height="14.39"/></clipPath></defs><path id="Tracé_1597" class="cls-15" d="m0,0h393v1861.41H0V0Z"/><path id="Tracé_1615" class="cls-15" d="m0,3018h393v2218.79H0v-2218.79Z"/><path id="Tracé_1616" class="cls-15" d="m0,5859.75h393v584.82H0v-584.82Z"/><g id="M_donnees"><path id="Tracé_1604" class="cls-11" d="m35,1316h368v595H35v-595Z"/></g><g id="Groupe_8"><g id="Groupe_12"><g id="Groupe_13"><g id="Boîte_données"><path id="Tracé_1603-2" class="cls-12" d="m0,1194h357v158.53H0v-158.53Z"/></g></g></g></g><g id="Groupe_3101"><rect id="Rectangle_38" class="cls-16" x="35" y="4222" width="371" height="750"/></g><g id="M_Pied-de-page"><path id="Tracé_1522" class="cls-12" d="m-4.3,6444.58h397.3v59.31H-4.3v-59.31Z"/><g id="Pas_de_cookies_sur_notre_site._La_meilleure_façon_de_protéger_vos_données_c_est_de_ne_pas_les_garder." class="cls-5"><g class="cls-5"><path class="cls-11" d="m260.1,6460.02v-5.6h1.79c.3,0,.57.07.81.22.24.15.43.34.57.59s.21.52.21.83-.07.59-.22.84-.34.44-.58.59c-.24.14-.51.22-.8.22h-1.23v2.32h-.56Zm.56-2.88h1.19c.2,0,.38-.05.54-.15.16-.1.29-.23.39-.4.1-.17.15-.36.15-.57s-.05-.4-.15-.57c-.1-.17-.23-.3-.39-.4s-.34-.15-.54-.15h-1.19v2.22Z"/><path class="cls-11" d="m267.24,6456.02h.56v4h-.56l-.02-.74c-.13.25-.31.46-.55.61-.23.16-.51.23-.84.23-.29,0-.57-.05-.82-.17-.26-.11-.48-.26-.68-.46-.19-.2-.35-.42-.46-.68s-.16-.53-.16-.82.05-.56.16-.81.26-.48.45-.67c.19-.19.41-.34.66-.45.25-.11.52-.16.81-.16.33,0,.62.08.87.24.25.16.45.37.59.62l-.02-.75Zm-1.42,3.56c.29,0,.53-.07.74-.21.21-.14.36-.33.47-.57.11-.24.17-.5.17-.78s-.06-.56-.17-.79c-.11-.24-.27-.42-.48-.56-.21-.14-.45-.21-.73-.21s-.54.07-.77.21c-.23.14-.42.33-.56.57s-.21.5-.21.79.07.55.21.79c.14.24.33.42.56.56s.49.21.76.21Z"/><path class="cls-11" d="m269.84,6460.1c-.22,0-.43-.05-.64-.12s-.39-.18-.54-.3c-.15-.13-.27-.27-.33-.44l.48-.21c.04.1.12.2.24.29.12.09.25.16.4.21s.3.08.44.08c.16,0,.31-.03.46-.08.14-.05.26-.13.35-.23.09-.1.13-.22.13-.35,0-.15-.05-.26-.14-.35-.1-.08-.22-.15-.36-.2-.15-.05-.3-.1-.45-.14-.28-.08-.53-.16-.75-.26-.22-.09-.38-.21-.51-.36-.12-.15-.18-.33-.18-.56,0-.24.07-.45.21-.63.14-.18.32-.31.54-.41.22-.1.46-.15.71-.15.33,0,.62.07.89.21.27.14.46.33.58.56l-.45.27c-.05-.11-.12-.2-.23-.28s-.22-.14-.35-.19c-.13-.04-.27-.07-.4-.07-.17,0-.33.02-.48.07-.15.05-.27.13-.35.23-.09.1-.13.23-.13.37s.04.26.13.33c.09.08.21.14.36.18.15.05.32.1.51.16.24.08.47.17.68.26s.39.22.52.37c.13.15.19.33.19.56,0,.24-.07.45-.22.63-.14.18-.33.32-.56.41-.23.09-.47.14-.74.13Z"/><path class="cls-11" d="m277.25,6454.02h.56v6h-.56v-.75c-.14.26-.33.46-.57.62-.24.16-.53.23-.86.23-.29,0-.56-.05-.82-.16-.25-.11-.48-.26-.67-.45s-.34-.42-.45-.67c-.11-.25-.16-.53-.16-.82s.05-.56.16-.82c.11-.25.26-.48.45-.67s.42-.34.67-.45.53-.16.82-.16c.33,0,.62.08.86.23.24.16.43.36.57.61v-2.74Zm-1.42,5.56c.29,0,.53-.07.74-.21.21-.14.36-.33.47-.57.11-.24.17-.5.17-.78s-.06-.56-.17-.79c-.11-.24-.27-.42-.48-.56-.21-.14-.45-.21-.73-.21s-.54.07-.77.21c-.23.14-.42.33-.56.57s-.21.5-.21.79.07.55.21.79c.14.24.33.42.56.56s.49.21.76.21Z"/><path class="cls-11" d="m280.5,6460.13c-.37,0-.7-.09-1.01-.28s-.54-.44-.72-.76c-.18-.32-.27-.67-.27-1.06,0-.29.05-.57.16-.82.1-.25.25-.48.43-.67s.4-.34.64-.45.5-.16.78-.16c.3,0,.57.06.82.18.25.12.46.28.64.49.18.21.32.46.41.74.09.28.13.59.11.92h-3.39c.03.25.11.48.24.68.13.2.29.36.5.47.2.12.42.17.67.18.27,0,.51-.07.72-.21s.39-.33.52-.57l.57.13c-.16.35-.4.64-.72.87-.32.23-.68.34-1.08.34Zm-1.42-2.34h2.84c-.02-.25-.09-.47-.23-.68-.13-.21-.3-.37-.51-.5s-.44-.19-.68-.19-.48.06-.68.18c-.21.12-.37.29-.5.49-.13.21-.21.44-.24.69Z"/><path class="cls-11" d="m287.98,6459.02l.5.27c-.18.25-.41.46-.69.61s-.58.23-.91.23c-.37,0-.7-.09-1.01-.28s-.54-.44-.72-.76c-.18-.32-.27-.67-.27-1.06,0-.29.05-.57.16-.82.1-.25.25-.48.43-.67s.4-.34.64-.45.5-.16.78-.16c.33,0,.63.08.91.23.28.15.51.36.69.61l-.5.27c-.14-.18-.31-.31-.5-.41s-.39-.14-.6-.14c-.27,0-.51.07-.73.21-.22.14-.39.33-.52.57-.13.24-.19.49-.19.77s.06.54.19.77c.13.23.3.42.52.56s.46.21.72.21c.22,0,.42-.05.62-.15.19-.1.35-.23.48-.4Z"/><path class="cls-11" d="m290.91,6460.13c-.37,0-.7-.09-1.01-.28s-.54-.44-.72-.76c-.18-.32-.27-.67-.27-1.06,0-.29.05-.57.16-.82.1-.25.25-.48.43-.67s.4-.34.64-.45.5-.16.78-.16c.37,0,.7.09,1.01.28s.54.44.72.76c.18.32.27.67.27,1.06,0,.29-.05.56-.16.82-.1.25-.25.48-.43.67s-.39.34-.64.45c-.24.11-.5.16-.78.16Zm0-.56c.27,0,.52-.07.73-.21s.39-.33.52-.57c.13-.23.19-.49.19-.76s-.06-.54-.19-.77c-.13-.24-.3-.42-.52-.57-.22-.14-.46-.21-.73-.21s-.52.07-.73.21-.39.33-.52.57c-.13.24-.19.49-.19.77s.07.55.2.78c.13.23.31.42.52.56.22.14.46.21.72.21Z"/><path class="cls-11" d="m295.31,6460.13c-.37,0-.7-.09-1.01-.28s-.54-.44-.72-.76c-.18-.32-.27-.67-.27-1.06,0-.29.05-.57.16-.82.1-.25.25-.48.43-.67s.4-.34.64-.45.5-.16.78-.16c.37,0,.7.09,1.01.28s.54.44.72.76c.18.32.27.67.27,1.06,0,.29-.05.56-.16.82-.1.25-.25.48-.43.67s-.39.34-.64.45c-.24.11-.5.16-.78.16Zm0-.56c.27,0,.52-.07.73-.21s.39-.33.52-.57c.13-.23.19-.49.19-.76s-.06-.54-.19-.77c-.13-.24-.3-.42-.52-.57-.22-.14-.46-.21-.73-.21s-.52.07-.73.21-.39.33-.52.57c-.13.24-.19.49-.19.77s.07.55.2.78c.13.23.31.42.52.56.22.14.46.21.72.21Z"/><path class="cls-11" d="m301.09,6460.02h-.64l-1.12-1.93-.8.96v.98h-.56v-6h.56v4.15l1.8-2.15h.73l-1.36,1.61,1.38,2.39Z"/><path class="cls-11" d="m302.12,6455.32c-.09,0-.17-.03-.23-.09-.06-.06-.09-.14-.09-.23s.03-.17.09-.23c.06-.06.14-.09.23-.09s.16.03.23.09c.06.06.09.14.09.23s-.03.17-.09.23c-.06.06-.14.09-.23.09Zm-.28.7h.56v4h-.56v-4Z"/><path class="cls-11" d="m305.08,6460.13c-.37,0-.7-.09-1.01-.28s-.54-.44-.72-.76c-.18-.32-.27-.67-.27-1.06,0-.29.05-.57.16-.82.1-.25.25-.48.43-.67s.4-.34.64-.45.5-.16.78-.16c.3,0,.57.06.82.18.25.12.46.28.64.49.18.21.32.46.41.74.09.28.13.59.11.92h-3.39c.03.25.11.48.24.68.13.2.29.36.5.47.2.12.42.17.67.18.27,0,.51-.07.72-.21s.39-.33.52-.57l.57.13c-.16.35-.4.64-.72.87-.32.23-.68.34-1.08.34Zm-1.42-2.34h2.84c-.02-.25-.09-.47-.23-.68-.13-.21-.3-.37-.51-.5s-.44-.19-.68-.19-.48.06-.68.18c-.21.12-.37.29-.5.49-.13.21-.21.44-.24.69Z"/><path class="cls-11" d="m309,6460.1c-.22,0-.43-.05-.64-.12s-.39-.18-.54-.3c-.15-.13-.27-.27-.33-.44l.48-.21c.04.1.12.2.24.29.12.09.25.16.4.21s.3.08.44.08c.16,0,.31-.03.46-.08.14-.05.26-.13.35-.23.09-.1.13-.22.13-.35,0-.15-.05-.26-.14-.35-.1-.08-.22-.15-.36-.2-.15-.05-.3-.1-.45-.14-.28-.08-.53-.16-.75-.26-.22-.09-.38-.21-.51-.36-.12-.15-.18-.33-.18-.56,0-.24.07-.45.21-.63.14-.18.32-.31.54-.41.22-.1.46-.15.71-.15.33,0,.62.07.89.21.27.14.46.33.58.56l-.45.27c-.05-.11-.12-.2-.23-.28s-.22-.14-.35-.19c-.13-.04-.27-.07-.4-.07-.17,0-.33.02-.48.07-.15.05-.27.13-.35.23-.09.1-.13.23-.13.37s.04.26.13.33c.09.08.21.14.36.18.15.05.32.1.51.16.24.08.47.17.68.26s.39.22.52.37c.13.15.19.33.19.56,0,.24-.07.45-.22.63-.14.18-.33.32-.56.41-.23.09-.47.14-.74.13Z"/><path class="cls-11" d="m314.35,6460.1c-.22,0-.43-.05-.64-.12s-.39-.18-.54-.3c-.15-.13-.27-.27-.33-.44l.48-.21c.04.1.12.2.24.29.12.09.25.16.4.21s.3.08.44.08c.16,0,.31-.03.46-.08.14-.05.26-.13.35-.23.09-.1.13-.22.13-.35,0-.15-.05-.26-.14-.35-.1-.08-.22-.15-.36-.2-.15-.05-.3-.1-.45-.14-.28-.08-.53-.16-.75-.26-.22-.09-.38-.21-.51-.36-.12-.15-.18-.33-.18-.56,0-.24.07-.45.21-.63.14-.18.32-.31.54-.41.22-.1.46-.15.71-.15.33,0,.62.07.89.21.27.14.46.33.58.56l-.45.27c-.05-.11-.12-.2-.23-.28s-.22-.14-.35-.19c-.13-.04-.27-.07-.4-.07-.17,0-.33.02-.48.07-.15.05-.27.13-.35.23-.09.1-.13.23-.13.37s.04.26.13.33c.09.08.21.14.36.18.15.05.32.1.51.16.24.08.47.17.68.26s.39.22.52.37c.13.15.19.33.19.56,0,.24-.07.45-.22.63-.14.18-.33.32-.56.41-.23.09-.47.14-.74.13Z"/><path class="cls-11" d="m316.39,6458.49v-2.47h.56v2.36c0,.22.05.42.16.6.11.18.25.32.43.43.18.11.38.16.59.16s.42-.05.59-.16c.18-.11.32-.25.43-.43s.16-.38.16-.6v-2.36h.56v4s-.56,0-.56,0v-.56c-.15.2-.33.36-.55.48-.23.12-.47.18-.74.18-.3,0-.58-.07-.82-.22s-.45-.34-.59-.59-.22-.52-.22-.82Z"/><path class="cls-11" d="m320.68,6460.02v-4h.56v.55c.14-.2.33-.36.55-.48.23-.12.47-.18.74-.18.15,0,.3.02.45.06l-.23.56c-.11-.03-.22-.05-.33-.05-.22,0-.41.05-.59.16-.18.11-.32.25-.43.43-.11.18-.16.38-.16.6v2.36h-.56Z"/><path class="cls-11" d="m328.95,6457.55v2.48h-.56v-2.36c0-.22-.05-.42-.16-.6-.11-.18-.25-.32-.43-.43s-.38-.16-.6-.16-.41.05-.59.16c-.18.11-.32.25-.43.43-.11.18-.16.38-.16.6v2.36h-.56v-4h.56v.55c.14-.2.33-.36.55-.48.23-.12.47-.18.74-.18.3,0,.58.07.82.22.25.15.45.34.59.59.15.25.22.52.22.82Z"/><path class="cls-11" d="m331.43,6460.13c-.37,0-.7-.09-1.01-.28s-.54-.44-.72-.76c-.18-.32-.27-.67-.27-1.06,0-.29.05-.57.16-.82.1-.25.25-.48.43-.67s.4-.34.64-.45.5-.16.78-.16c.37,0,.7.09,1.01.28s.54.44.72.76c.18.32.27.67.27,1.06,0,.29-.05.56-.16.82-.1.25-.25.48-.43.67s-.39.34-.64.45c-.24.11-.5.16-.78.16Zm0-.56c.27,0,.52-.07.73-.21s.39-.33.52-.57c.13-.23.19-.49.19-.76s-.06-.54-.19-.77c-.13-.24-.3-.42-.52-.57-.22-.14-.46-.21-.73-.21s-.52.07-.73.21-.39.33-.52.57c-.13.24-.19.49-.19.77s.07.55.2.78c.13.23.31.42.52.56.22.14.46.21.72.21Z"/><path class="cls-11" d="m336.08,6456.58h-.96v3.44h-.56v-3.44s-.72,0-.72,0v-.56h.72v-1.26s.56,0,.56,0v1.26h.96v.56Z"/><path class="cls-11" d="m336.8,6460.02v-4h.56v.55c.14-.2.33-.36.55-.48.23-.12.47-.18.74-.18.15,0,.3.02.45.06l-.23.56c-.11-.03-.22-.05-.33-.05-.22,0-.41.05-.59.16-.18.11-.32.25-.43.43-.11.18-.16.38-.16.6v2.36h-.56Z"/><path class="cls-11" d="m341.15,6460.13c-.37,0-.7-.09-1.01-.28s-.54-.44-.72-.76c-.18-.32-.27-.67-.27-1.06,0-.29.05-.57.16-.82.1-.25.25-.48.43-.67s.4-.34.64-.45.5-.16.78-.16c.3,0,.57.06.82.18.25.12.46.28.64.49.18.21.32.46.41.74.09.28.13.59.11.92h-3.39c.03.25.11.48.24.68.13.2.29.36.5.47.2.12.42.17.67.18.27,0,.51-.07.72-.21s.39-.33.52-.57l.57.13c-.16.35-.4.64-.72.87-.32.23-.68.34-1.08.34Zm-1.42-2.34h2.84c-.02-.25-.09-.47-.23-.68-.13-.21-.3-.37-.51-.5s-.44-.19-.68-.19-.48.06-.68.18c-.21.12-.37.29-.5.49-.13.21-.21.44-.24.69Z"/><path class="cls-11" d="m347.01,6460.1c-.22,0-.43-.05-.64-.12s-.39-.18-.54-.3c-.15-.13-.27-.27-.33-.44l.48-.21c.04.1.12.2.24.29.12.09.25.16.4.21s.3.08.44.08c.16,0,.31-.03.46-.08.14-.05.26-.13.35-.23.09-.1.13-.22.13-.35,0-.15-.05-.26-.14-.35-.1-.08-.22-.15-.36-.2-.15-.05-.3-.1-.45-.14-.28-.08-.53-.16-.75-.26-.22-.09-.38-.21-.51-.36-.12-.15-.18-.33-.18-.56,0-.24.07-.45.21-.63.14-.18.32-.31.54-.41.22-.1.46-.15.71-.15.33,0,.62.07.89.21.27.14.46.33.58.56l-.45.27c-.05-.11-.12-.2-.23-.28s-.22-.14-.35-.19c-.13-.04-.27-.07-.4-.07-.17,0-.33.02-.48.07-.15.05-.27.13-.35.23-.09.1-.13.23-.13.37s.04.26.13.33c.09.08.21.14.36.18.15.05.32.1.51.16.24.08.47.17.68.26s.39.22.52.37c.13.15.19.33.19.56,0,.24-.07.45-.22.63-.14.18-.33.32-.56.41-.23.09-.47.14-.74.13Z"/><path class="cls-11" d="m349.46,6455.32c-.09,0-.17-.03-.23-.09-.06-.06-.09-.14-.09-.23s.03-.17.09-.23c.06-.06.14-.09.23-.09s.16.03.23.09c.06.06.09.14.09.23s-.03.17-.09.23c-.06.06-.14.09-.23.09Zm-.28.7h.56v4h-.56v-4Z"/><path class="cls-11" d="m352.74,6456.58h-.96v3.44h-.56v-3.44s-.72,0-.72,0v-.56h.72v-1.26s.56,0,.56,0v1.26h.96v.56Z"/><path class="cls-11" d="m355.11,6460.13c-.37,0-.7-.09-1.01-.28s-.54-.44-.72-.76c-.18-.32-.27-.67-.27-1.06,0-.29.05-.57.16-.82.1-.25.25-.48.43-.67s.4-.34.64-.45.5-.16.78-.16c.3,0,.57.06.82.18.25.12.46.28.64.49.18.21.32.46.41.74.09.28.13.59.11.92h-3.39c.03.25.11.48.24.68.13.2.29.36.5.47.2.12.42.17.67.18.27,0,.51-.07.72-.21s.39-.33.52-.57l.57.13c-.16.35-.4.64-.72.87-.32.23-.68.34-1.08.34Zm-1.42-2.34h2.84c-.02-.25-.09-.47-.23-.68-.13-.21-.3-.37-.51-.5s-.44-.19-.68-.19-.48.06-.68.18c-.21.12-.37.29-.5.49-.13.21-.21.44-.24.69Z"/><path class="cls-11" d="m357.89,6460.13c-.09,0-.16-.03-.22-.09-.06-.06-.09-.14-.09-.23,0-.09.03-.16.09-.22.06-.06.14-.09.22-.09s.17.03.23.09c.06.06.09.14.09.22,0,.09-.03.17-.09.23-.06.06-.14.09-.23.09Z"/></g><g class="cls-5"><path class="cls-11" d="m272.28,6471.02v-5.6h.56v5.04h2.57v.56h-3.13Z"/><path class="cls-11" d="m279.17,6467.02h.56v4h-.56l-.02-.74c-.13.25-.31.46-.55.61-.23.16-.51.23-.84.23-.29,0-.57-.05-.82-.17-.26-.11-.48-.26-.68-.46-.19-.2-.35-.42-.46-.68s-.16-.53-.16-.82.05-.56.16-.81.26-.48.45-.67c.19-.19.41-.34.66-.45.25-.11.52-.16.81-.16.33,0,.62.08.87.24.25.16.45.37.59.62l-.02-.75Zm-1.42,3.56c.29,0,.53-.07.74-.21.21-.14.36-.33.47-.57.11-.24.17-.5.17-.78s-.06-.56-.17-.79c-.11-.24-.27-.42-.48-.56-.21-.14-.45-.21-.73-.21s-.54.07-.77.21c-.23.14-.42.33-.56.57s-.21.5-.21.79.07.55.21.79c.14.24.33.42.56.56s.49.21.76.21Z"/><path class="cls-11" d="m282.45,6471.02v-4h.56v.55c.14-.2.33-.36.55-.48.22-.12.47-.18.74-.18.3,0,.58.07.83.22.25.15.45.34.59.59.14-.25.34-.44.58-.59.25-.15.52-.22.82-.22s.58.07.82.22c.25.15.45.34.59.59.15.25.22.52.22.82v2.48h-.56v-2.35c0-.21-.05-.41-.16-.59-.1-.18-.24-.33-.42-.44-.17-.11-.37-.17-.58-.17s-.41.05-.58.15c-.17.1-.31.24-.42.42-.1.18-.16.39-.16.62v2.35h-.56v-2.35c0-.23-.05-.44-.16-.62-.1-.18-.24-.32-.42-.42-.18-.1-.37-.15-.58-.15s-.4.06-.58.17c-.18.11-.32.26-.42.44-.1.18-.16.38-.16.59v2.35h-.56Z"/><path class="cls-11" d="m291.24,6471.13c-.37,0-.7-.09-1.01-.28s-.54-.44-.72-.76c-.18-.32-.27-.67-.27-1.06,0-.29.05-.57.16-.82.1-.25.25-.48.43-.67s.4-.34.64-.45.5-.16.78-.16c.3,0,.57.06.82.18.25.12.46.28.64.49.18.21.32.46.41.74.09.28.13.59.11.92h-3.39c.03.25.11.48.24.68.13.2.29.36.5.47.2.12.42.17.67.18.27,0,.51-.07.72-.21s.39-.33.52-.57l.57.13c-.16.35-.4.64-.72.87-.32.23-.68.34-1.08.34Zm-1.42-2.34h2.84c-.02-.25-.09-.47-.23-.68-.13-.21-.3-.37-.51-.5s-.44-.19-.68-.19-.48.06-.68.18c-.21.12-.37.29-.5.49-.13.21-.21.44-.24.69Z"/><path class="cls-11" d="m294.15,6466.32c-.09,0-.17-.03-.23-.09-.06-.06-.09-.14-.09-.23s.03-.17.09-.23c.06-.06.14-.09.23-.09s.16.03.23.09c.06.06.09.14.09.23s-.03.17-.09.23c-.06.06-.14.09-.23.09Zm-.28.7h.56v4h-.56v-4Z"/><path class="cls-11" d="m295.41,6471.02v-6h.56v6h-.56Z"/><path class="cls-11" d="m296.93,6471.02v-6h.56v6h-.56Z"/><path class="cls-11" d="m300.19,6471.13c-.37,0-.7-.09-1.01-.28s-.54-.44-.72-.76c-.18-.32-.27-.67-.27-1.06,0-.29.05-.57.16-.82.1-.25.25-.48.43-.67s.4-.34.64-.45.5-.16.78-.16c.3,0,.57.06.82.18.25.12.46.28.64.49.18.21.32.46.41.74.09.28.13.59.11.92h-3.39c.03.25.11.48.24.68.13.2.29.36.5.47.2.12.42.17.67.18.27,0,.51-.07.72-.21s.39-.33.52-.57l.57.13c-.16.35-.4.64-.72.87-.32.23-.68.34-1.08.34Zm-1.42-2.34h2.84c-.02-.25-.09-.47-.23-.68-.13-.21-.3-.37-.51-.5s-.44-.19-.68-.19-.48.06-.68.18c-.21.12-.37.29-.5.49-.13.21-.21.44-.24.69Z"/><path class="cls-11" d="m302.65,6469.49v-2.47h.56v2.36c0,.22.05.42.16.6.11.18.25.32.43.43.18.11.38.16.59.16s.42-.05.59-.16c.18-.11.32-.25.43-.43s.16-.38.16-.6v-2.36h.56v4s-.56,0-.56,0v-.56c-.15.2-.33.36-.55.48-.23.12-.47.18-.74.18-.3,0-.58-.07-.82-.22s-.45-.34-.59-.59-.22-.52-.22-.82Z"/><path class="cls-11" d="m306.94,6471.02v-4h.56v.55c.14-.2.33-.36.55-.48.23-.12.47-.18.74-.18.15,0,.3.02.45.06l-.23.56c-.11-.03-.22-.05-.33-.05-.22,0-.41.05-.59.16-.18.11-.32.25-.43.43-.11.18-.16.38-.16.6v2.36h-.56Z"/><path class="cls-11" d="m311.29,6471.13c-.37,0-.7-.09-1.01-.28s-.54-.44-.72-.76c-.18-.32-.27-.67-.27-1.06,0-.29.05-.57.16-.82.1-.25.25-.48.43-.67s.4-.34.64-.45.5-.16.78-.16c.3,0,.57.06.82.18.25.12.46.28.64.49.18.21.32.46.41.74.09.28.13.59.11.92h-3.39c.03.25.11.48.24.68.13.2.29.36.5.47.2.12.42.17.67.18.27,0,.51-.07.72-.21s.39-.33.52-.57l.57.13c-.16.35-.4.64-.72.87-.32.23-.68.34-1.08.34Zm-1.42-2.34h2.84c-.02-.25-.09-.47-.23-.68-.13-.21-.3-.37-.51-.5s-.44-.19-.68-.19-.48.06-.68.18c-.21.12-.37.29-.5.49-.13.21-.21.44-.24.69Z"/><path class="cls-11" d="m316.75,6465.98v1.04h1.2v.56h-1.2v3.44h-.56v-3.44h-.55v-.56h.55v-1.04c0-.19.05-.37.14-.53.09-.16.22-.29.38-.38s.34-.14.53-.14c.14,0,.28.03.41.08.13.06.25.14.35.25l-.4.4c-.04-.05-.1-.09-.16-.12s-.13-.04-.2-.04c-.14,0-.25.05-.35.14-.1.1-.15.21-.15.35Z"/><path class="cls-11" d="m321.79,6467.02h.56v4h-.56l-.02-.74c-.13.25-.31.46-.55.61-.23.16-.51.23-.84.23-.29,0-.57-.05-.82-.17-.26-.11-.48-.26-.68-.46-.19-.2-.35-.42-.46-.68s-.16-.53-.16-.82.05-.56.16-.81.26-.48.45-.67c.19-.19.41-.34.66-.45.25-.11.52-.16.81-.16.33,0,.62.08.87.24.25.16.45.37.59.62l-.02-.75Zm-1.42,3.56c.29,0,.53-.07.74-.21.21-.14.36-.33.47-.57.11-.24.17-.5.17-.78s-.06-.56-.17-.79c-.11-.24-.27-.42-.48-.56-.21-.14-.45-.21-.73-.21s-.54.07-.77.21c-.23.14-.42.33-.56.57s-.21.5-.21.79.07.55.21.79c.14.24.33.42.56.56s.49.21.76.21Z"/><path class="cls-11" d="m325.92,6470.02l.5.27c-.18.25-.41.46-.69.61s-.58.23-.91.23c-.37,0-.7-.09-1.01-.28s-.54-.44-.72-.76c-.18-.32-.27-.67-.27-1.06,0-.29.05-.57.16-.82.1-.25.25-.48.43-.67s.4-.34.64-.45.5-.16.78-.16c.33,0,.63.08.91.23.28.15.51.36.69.61l-.5.27c-.14-.18-.31-.31-.5-.41s-.39-.14-.6-.14c-.27,0-.51.07-.73.21-.22.14-.39.33-.52.57-.13.24-.19.49-.19.77s.06.54.19.77c.13.23.3.42.52.56s.46.21.72.21c.22,0,.42-.05.62-.15.19-.1.35-.23.48-.4Zm-1.09,2.47c-.17.05-.33.02-.48-.06s-.25-.22-.3-.38l.35-.09c.02.07.06.13.13.16.07.04.14.05.21.03.07-.02.13-.06.17-.13.04-.07.05-.14.03-.21-.02-.08-.06-.13-.13-.17s-.14-.05-.21-.03l-.38.05.49-.86.31.18-.17.29c.1.03.19.08.27.16s.13.17.16.28c.04.17.02.33-.06.48-.09.15-.22.25-.39.3Z"/><path class="cls-11" d="m328.85,6471.13c-.37,0-.7-.09-1.01-.28s-.54-.44-.72-.76c-.18-.32-.27-.67-.27-1.06,0-.29.05-.57.16-.82.1-.25.25-.48.43-.67s.4-.34.64-.45.5-.16.78-.16c.37,0,.7.09,1.01.28s.54.44.72.76c.18.32.27.67.27,1.06,0,.29-.05.56-.16.82-.1.25-.25.48-.43.67s-.39.34-.64.45c-.24.11-.5.16-.78.16Zm0-.56c.27,0,.52-.07.73-.21s.39-.33.52-.57c.13-.23.19-.49.19-.76s-.06-.54-.19-.77c-.13-.24-.3-.42-.52-.57-.22-.14-.46-.21-.73-.21s-.52.07-.73.21-.39.33-.52.57c-.13.24-.19.49-.19.77s.07.55.2.78c.13.23.31.42.52.56.22.14.46.21.72.21Z"/><path class="cls-11" d="m335.02,6468.55v2.48h-.56v-2.36c0-.22-.05-.42-.16-.6-.11-.18-.25-.32-.43-.43s-.38-.16-.6-.16-.41.05-.59.16c-.18.11-.32.25-.43.43-.11.18-.16.38-.16.6v2.36h-.56v-4h.56v.55c.14-.2.33-.36.55-.48.23-.12.47-.18.74-.18.3,0,.58.07.82.22.25.15.45.34.59.59.15.25.22.52.22.82Z"/><path class="cls-11" d="m341.03,6465.02h.56v6h-.56v-.75c-.14.26-.33.46-.57.62-.24.16-.53.23-.86.23-.29,0-.56-.05-.82-.16-.25-.11-.48-.26-.67-.45s-.34-.42-.45-.67c-.11-.25-.16-.53-.16-.82s.05-.56.16-.82c.11-.25.26-.48.45-.67s.42-.34.67-.45.53-.16.82-.16c.33,0,.62.08.86.23.24.16.43.36.57.61v-2.74Zm-1.42,5.56c.29,0,.53-.07.74-.21.21-.14.36-.33.47-.57.11-.24.17-.5.17-.78s-.06-.56-.17-.79c-.11-.24-.27-.42-.48-.56-.21-.14-.45-.21-.73-.21s-.54.07-.77.21c-.23.14-.42.33-.56.57s-.21.5-.21.79.07.55.21.79c.14.24.33.42.56.56s.49.21.76.21Z"/><path class="cls-11" d="m344.28,6471.13c-.37,0-.7-.09-1.01-.28s-.54-.44-.72-.76c-.18-.32-.27-.67-.27-1.06,0-.29.05-.57.16-.82.1-.25.25-.48.43-.67s.4-.34.64-.45.5-.16.78-.16c.3,0,.57.06.82.18.25.12.46.28.64.49.18.21.32.46.41.74.09.28.13.59.11.92h-3.39c.03.25.11.48.24.68.13.2.29.36.5.47.2.12.42.17.67.18.27,0,.51-.07.72-.21s.39-.33.52-.57l.57.13c-.16.35-.4.64-.72.87-.32.23-.68.34-1.08.34Zm-1.42-2.34h2.84c-.02-.25-.09-.47-.23-.68-.13-.21-.3-.37-.51-.5s-.44-.19-.68-.19-.48.06-.68.18c-.21.12-.37.29-.5.49-.13.21-.21.44-.24.69Z"/></g><g class="cls-5"><path class="cls-11" d="m262.54,6484.02h-.56v-6h.56v.75c.14-.25.33-.46.57-.62.24-.16.53-.24.86-.24.29,0,.56.05.82.16.25.11.48.26.67.45.19.19.34.42.45.67.11.25.16.53.16.82s-.05.56-.16.82-.26.48-.45.67c-.19.19-.42.34-.67.45-.25.11-.53.16-.82.16-.33,0-.62-.08-.86-.24-.24-.16-.43-.36-.57-.62v2.74Zm1.42-5.56c-.28,0-.52.07-.73.21-.21.14-.37.33-.48.56s-.17.5-.17.79.06.55.17.78.27.43.48.57c.21.14.45.21.73.21s.53-.07.77-.21.42-.33.56-.56c.14-.24.21-.5.21-.79s-.07-.55-.21-.78c-.14-.24-.32-.42-.56-.57-.23-.14-.49-.21-.78-.21Z"/><path class="cls-11" d="m266.75,6482.02v-4h.56v.55c.14-.2.33-.36.55-.48.23-.12.47-.18.74-.18.15,0,.3.02.45.06l-.23.56c-.11-.03-.22-.05-.33-.05-.22,0-.41.05-.59.16-.18.11-.32.25-.43.43-.11.18-.16.38-.16.6v2.36h-.56Z"/><path class="cls-11" d="m271.1,6482.13c-.37,0-.7-.09-1.01-.28s-.54-.44-.72-.76c-.18-.32-.27-.67-.27-1.06,0-.29.05-.57.16-.82.1-.25.25-.48.43-.67s.4-.34.64-.45.5-.16.78-.16c.37,0,.7.09,1.01.28s.54.44.72.76c.18.32.27.67.27,1.06,0,.29-.05.56-.16.82-.1.25-.25.48-.43.67s-.39.34-.64.45c-.24.11-.5.16-.78.16Zm0-.56c.27,0,.52-.07.73-.21s.39-.33.52-.57c.13-.23.19-.49.19-.76s-.06-.54-.19-.77c-.13-.24-.3-.42-.52-.57-.22-.14-.46-.21-.73-.21s-.52.07-.73.21-.39.33-.52.57c-.13.24-.19.49-.19.77s.07.55.2.78c.13.23.31.42.52.56.22.14.46.21.72.21Z"/><path class="cls-11" d="m275.75,6478.58h-.96v3.44h-.56v-3.44s-.72,0-.72,0v-.56h.72v-1.26s.56,0,.56,0v1.26h.96v.56Z"/><path class="cls-11" d="m278.12,6482.13c-.37,0-.7-.09-1.01-.28s-.54-.44-.72-.76c-.18-.32-.27-.67-.27-1.06,0-.29.05-.57.16-.82.1-.25.25-.48.43-.67s.4-.34.64-.45.5-.16.78-.16c.3,0,.57.06.82.18.25.12.46.28.64.49.18.21.32.46.41.74.09.28.13.59.11.92h-3.39c.03.25.11.48.24.68.13.2.29.36.5.47.2.12.42.17.67.18.27,0,.51-.07.72-.21s.39-.33.52-.57l.57.13c-.16.35-.4.64-.72.87-.32.23-.68.34-1.08.34Zm-1.42-2.34h2.84c-.02-.25-.09-.47-.23-.68-.13-.21-.3-.37-.51-.5s-.44-.19-.68-.19-.48.06-.68.18c-.21.12-.37.29-.5.49-.13.21-.21.44-.24.69Zm1.28-2.2l.32-1.15h.56l-.5,1.15h-.38Z"/><path class="cls-11" d="m283.93,6478.02h.56v4.15c0,.26-.06.5-.17.72-.11.22-.26.42-.45.59s-.4.3-.64.4c-.24.1-.49.14-.75.14-.28,0-.55-.06-.8-.19-.26-.13-.48-.29-.67-.51-.19-.21-.33-.44-.41-.7l.52-.24c.05.2.15.38.29.54.14.16.31.29.5.38.19.09.39.14.59.14.18,0,.36-.03.53-.1s.33-.16.46-.28.25-.25.33-.41c.08-.16.12-.32.12-.5v-.88c-.14.25-.33.45-.56.61-.24.15-.51.23-.82.23-.28,0-.54-.05-.79-.16-.25-.11-.46-.26-.65-.45s-.33-.42-.44-.67c-.11-.25-.16-.53-.16-.82s.05-.56.16-.82c.11-.25.25-.48.44-.67s.4-.34.65-.45.51-.16.79-.16c.31,0,.59.08.82.23.24.15.42.36.56.61v-.73Zm-1.38,3.56c.28,0,.52-.07.72-.22.2-.14.36-.33.47-.57s.16-.5.16-.77-.06-.55-.17-.78c-.11-.24-.27-.42-.47-.57s-.44-.21-.71-.21-.52.07-.74.21c-.22.14-.4.33-.53.57-.13.24-.2.5-.2.79s.07.55.2.79c.13.24.31.42.53.56.22.14.47.21.73.21Z"/><path class="cls-11" d="m287.17,6482.13c-.37,0-.7-.09-1.01-.28s-.54-.44-.72-.76c-.18-.32-.27-.67-.27-1.06,0-.29.05-.57.16-.82.1-.25.25-.48.43-.67s.4-.34.64-.45.5-.16.78-.16c.3,0,.57.06.82.18.25.12.46.28.64.49.18.21.32.46.41.74.09.28.13.59.11.92h-3.39c.03.25.11.48.24.68.13.2.29.36.5.47.2.12.42.17.67.18.27,0,.51-.07.72-.21s.39-.33.52-.57l.57.13c-.16.35-.4.64-.72.87-.32.23-.68.34-1.08.34Zm-1.42-2.34h2.84c-.02-.25-.09-.47-.23-.68-.13-.21-.3-.37-.51-.5s-.44-.19-.68-.19-.48.06-.68.18c-.21.12-.37.29-.5.49-.13.21-.21.44-.24.69Z"/><path class="cls-11" d="m289.84,6482.02v-4h.56v.55c.14-.2.33-.36.55-.48.23-.12.47-.18.74-.18.15,0,.3.02.45.06l-.23.56c-.11-.03-.22-.05-.33-.05-.22,0-.41.05-.59.16-.18.11-.32.25-.43.43-.11.18-.16.38-.16.6v2.36h-.56Z"/><path class="cls-11" d="m296.55,6482.02h-.71l-1.46-4.01h.6l1.22,3.36,1.22-3.36h.6l-1.46,4.01Z"/><path class="cls-11" d="m300.28,6482.13c-.37,0-.7-.09-1.01-.28s-.54-.44-.72-.76c-.18-.32-.27-.67-.27-1.06,0-.29.05-.57.16-.82.1-.25.25-.48.43-.67s.4-.34.64-.45.5-.16.78-.16c.37,0,.7.09,1.01.28s.54.44.72.76c.18.32.27.67.27,1.06,0,.29-.05.56-.16.82-.1.25-.25.48-.43.67s-.39.34-.64.45c-.24.11-.5.16-.78.16Zm0-.56c.27,0,.52-.07.73-.21s.39-.33.52-.57c.13-.23.19-.49.19-.76s-.06-.54-.19-.77c-.13-.24-.3-.42-.52-.57-.22-.14-.46-.21-.73-.21s-.52.07-.73.21-.39.33-.52.57c-.13.24-.19.49-.19.77s.07.55.2.78c.13.23.31.42.52.56.22.14.46.21.72.21Z"/><path class="cls-11" d="m304.21,6482.1c-.22,0-.43-.05-.64-.12s-.39-.18-.54-.3c-.15-.13-.27-.27-.33-.44l.48-.21c.04.1.12.2.24.29.12.09.25.16.4.21s.3.08.44.08c.16,0,.31-.03.46-.08.14-.05.26-.13.35-.23.09-.1.13-.22.13-.35,0-.15-.05-.26-.14-.35-.1-.08-.22-.15-.36-.2-.15-.05-.3-.1-.45-.14-.28-.08-.53-.16-.75-.26-.22-.09-.38-.21-.51-.36-.12-.15-.18-.33-.18-.56,0-.24.07-.45.21-.63.14-.18.32-.31.54-.41.22-.1.46-.15.71-.15.33,0,.62.07.89.21.27.14.46.33.58.56l-.45.27c-.05-.11-.12-.2-.23-.28s-.22-.14-.35-.19c-.13-.04-.27-.07-.4-.07-.17,0-.33.02-.48.07-.15.05-.27.13-.35.23-.09.1-.13.23-.13.37s.04.26.13.33c.09.08.21.14.36.18.15.05.32.1.51.16.24.08.47.17.68.26s.39.22.52.37c.13.15.19.33.19.56,0,.24-.07.45-.22.63-.14.18-.33.32-.56.41-.23.09-.47.14-.74.13Z"/><path class="cls-11" d="m311.62,6476.02h.56v6h-.56v-.75c-.14.26-.33.46-.57.62-.24.16-.53.23-.86.23-.29,0-.56-.05-.82-.16-.25-.11-.48-.26-.67-.45s-.34-.42-.45-.67c-.11-.25-.16-.53-.16-.82s.05-.56.16-.82c.11-.25.26-.48.45-.67s.42-.34.67-.45.53-.16.82-.16c.33,0,.62.08.86.23.24.16.43.36.57.61v-2.74Zm-1.42,5.56c.29,0,.53-.07.74-.21.21-.14.36-.33.47-.57.11-.24.17-.5.17-.78s-.06-.56-.17-.79c-.11-.24-.27-.42-.48-.56-.21-.14-.45-.21-.73-.21s-.54.07-.77.21c-.23.14-.42.33-.56.57s-.21.5-.21.79.07.55.21.79c.14.24.33.42.56.56s.49.21.76.21Z"/><path class="cls-11" d="m314.87,6482.13c-.37,0-.7-.09-1.01-.28s-.54-.44-.72-.76c-.18-.32-.27-.67-.27-1.06,0-.29.05-.57.16-.82.1-.25.25-.48.43-.67s.4-.34.64-.45.5-.16.78-.16c.37,0,.7.09,1.01.28s.54.44.72.76c.18.32.27.67.27,1.06,0,.29-.05.56-.16.82-.1.25-.25.48-.43.67s-.39.34-.64.45c-.24.11-.5.16-.78.16Zm0-.56c.27,0,.52-.07.73-.21s.39-.33.52-.57c.13-.23.19-.49.19-.76s-.06-.54-.19-.77c-.13-.24-.3-.42-.52-.57-.22-.14-.46-.21-.73-.21s-.52.07-.73.21-.39.33-.52.57c-.13.24-.19.49-.19.77s.07.55.2.78c.13.23.31.42.52.56.22.14.46.21.72.21Z"/><path class="cls-11" d="m321.04,6479.55v2.48h-.56v-2.36c0-.22-.05-.42-.16-.6-.11-.18-.25-.32-.43-.43s-.38-.16-.6-.16-.41.05-.59.16c-.18.11-.32.25-.43.43-.11.18-.16.38-.16.6v2.36h-.56v-4h.56v.55c.14-.2.33-.36.55-.48.23-.12.47-.18.74-.18.3,0,.58.07.82.22.25.15.45.34.59.59.15.25.22.52.22.82Z"/><path class="cls-11" d="m325.33,6479.55v2.48h-.56v-2.36c0-.22-.05-.42-.16-.6-.11-.18-.25-.32-.43-.43s-.38-.16-.6-.16-.41.05-.59.16c-.18.11-.32.25-.43.43-.11.18-.16.38-.16.6v2.36h-.56v-4h.56v.55c.14-.2.33-.36.55-.48.23-.12.47-.18.74-.18.3,0,.58.07.82.22.25.15.45.34.59.59.15.25.22.52.22.82Z"/><path class="cls-11" d="m327.81,6482.13c-.37,0-.7-.09-1.01-.28s-.54-.44-.72-.76c-.18-.32-.27-.67-.27-1.06,0-.29.05-.57.16-.82.1-.25.25-.48.43-.67s.4-.34.64-.45.5-.16.78-.16c.3,0,.57.06.82.18.25.12.46.28.64.49.18.21.32.46.41.74.09.28.13.59.11.92h-3.39c.03.25.11.48.24.68.13.2.29.36.5.47.2.12.42.17.67.18.27,0,.51-.07.72-.21s.39-.33.52-.57l.57.13c-.16.35-.4.64-.72.87-.32.23-.68.34-1.08.34Zm-1.42-2.34h2.84c-.02-.25-.09-.47-.23-.68-.13-.21-.3-.37-.51-.5s-.44-.19-.68-.19-.48.06-.68.18c-.21.12-.37.29-.5.49-.13.21-.21.44-.24.69Zm1.28-2.2l.32-1.15h.56l-.5,1.15h-.38Z"/><path class="cls-11" d="m332.19,6482.13c-.37,0-.7-.09-1.01-.28s-.54-.44-.72-.76c-.18-.32-.27-.67-.27-1.06,0-.29.05-.57.16-.82.1-.25.25-.48.43-.67s.4-.34.64-.45.5-.16.78-.16c.3,0,.57.06.82.18.25.12.46.28.64.49.18.21.32.46.41.74.09.28.13.59.11.92h-3.39c.03.25.11.48.24.68.13.2.29.36.5.47.2.12.42.17.67.18.27,0,.51-.07.72-.21s.39-.33.52-.57l.57.13c-.16.35-.4.64-.72.87-.32.23-.68.34-1.08.34Zm-1.42-2.34h2.84c-.02-.25-.09-.47-.23-.68-.13-.21-.3-.37-.51-.5s-.44-.19-.68-.19-.48.06-.68.18c-.21.12-.37.29-.5.49-.13.21-.21.44-.24.69Z"/><path class="cls-11" d="m336.11,6482.1c-.22,0-.43-.05-.64-.12s-.39-.18-.54-.3c-.15-.13-.27-.27-.33-.44l.48-.21c.04.1.12.2.24.29.12.09.25.16.4.21s.3.08.44.08c.16,0,.31-.03.46-.08.14-.05.26-.13.35-.23.09-.1.13-.22.13-.35,0-.15-.05-.26-.14-.35-.1-.08-.22-.15-.36-.2-.15-.05-.3-.1-.45-.14-.28-.08-.53-.16-.75-.26-.22-.09-.38-.21-.51-.36-.12-.15-.18-.33-.18-.56,0-.24.07-.45.21-.63.14-.18.32-.31.54-.41.22-.1.46-.15.71-.15.33,0,.62.07.89.21.27.14.46.33.58.56l-.45.27c-.05-.11-.12-.2-.23-.28s-.22-.14-.35-.19c-.13-.04-.27-.07-.4-.07-.17,0-.33.02-.48.07-.15.05-.27.13-.35.23-.09.1-.13.23-.13.37s.04.26.13.33c.09.08.21.14.36.18.15.05.32.1.51.16.24.08.47.17.68.26s.39.22.52.37c.13.15.19.33.19.56,0,.24-.07.45-.22.63-.14.18-.33.32-.56.41-.23.09-.47.14-.74.13Z"/><path class="cls-11" d="m338.14,6482.47l.25-1.35h.56l-.44,1.35h-.37Z"/><path class="cls-11" d="m344.68,6481.02l.5.27c-.18.25-.41.46-.69.61s-.58.23-.91.23c-.37,0-.7-.09-1.01-.28s-.54-.44-.72-.76c-.18-.32-.27-.67-.27-1.06,0-.29.05-.57.16-.82.1-.25.25-.48.43-.67s.4-.34.64-.45.5-.16.78-.16c.33,0,.63.08.91.23.28.15.51.36.69.61l-.5.27c-.14-.18-.31-.31-.5-.41s-.39-.14-.6-.14c-.27,0-.51.07-.73.21-.22.14-.39.33-.52.57-.13.24-.19.49-.19.77s.06.54.19.77c.13.23.3.42.52.56s.46.21.72.21c.22,0,.42-.05.62-.15.19-.1.35-.23.48-.4Z"/><path class="cls-11" d="m345.58,6478.51l.25-2.09h.56l-.44,2.09h-.37Z"/><path class="cls-11" d="m348.42,6482.13c-.37,0-.7-.09-1.01-.28s-.54-.44-.72-.76c-.18-.32-.27-.67-.27-1.06,0-.29.05-.57.16-.82.1-.25.25-.48.43-.67s.4-.34.64-.45.5-.16.78-.16c.3,0,.57.06.82.18.25.12.46.28.64.49.18.21.32.46.41.74.09.28.13.59.11.92h-3.39c.03.25.11.48.24.68.13.2.29.36.5.47.2.12.42.17.67.18.27,0,.51-.07.72-.21s.39-.33.52-.57l.57.13c-.16.35-.4.64-.72.87-.32.23-.68.34-1.08.34Zm-1.42-2.34h2.84c-.02-.25-.09-.47-.23-.68-.13-.21-.3-.37-.51-.5s-.44-.19-.68-.19-.48.06-.68.18c-.21.12-.37.29-.5.49-.13.21-.21.44-.24.69Z"/><path class="cls-11" d="m352.33,6482.1c-.22,0-.43-.05-.64-.12s-.39-.18-.54-.3c-.15-.13-.27-.27-.33-.44l.48-.21c.04.1.12.2.24.29.12.09.25.16.4.21s.3.08.44.08c.16,0,.31-.03.46-.08.14-.05.26-.13.35-.23.09-.1.13-.22.13-.35,0-.15-.05-.26-.14-.35-.1-.08-.22-.15-.36-.2-.15-.05-.3-.1-.45-.14-.28-.08-.53-.16-.75-.26-.22-.09-.38-.21-.51-.36-.12-.15-.18-.33-.18-.56,0-.24.07-.45.21-.63.14-.18.32-.31.54-.41.22-.1.46-.15.71-.15.33,0,.62.07.89.21.27.14.46.33.58.56l-.45.27c-.05-.11-.12-.2-.23-.28s-.22-.14-.35-.19c-.13-.04-.27-.07-.4-.07-.17,0-.33.02-.48.07-.15.05-.27.13-.35.23-.09.1-.13.23-.13.37s.04.26.13.33c.09.08.21.14.36.18.15.05.32.1.51.16.24.08.47.17.68.26s.39.22.52.37c.13.15.19.33.19.56,0,.24-.07.45-.22.63-.14.18-.33.32-.56.41-.23.09-.47.14-.74.13Z"/><path class="cls-11" d="m356.58,6478.58h-.96v3.44h-.56v-3.44s-.72,0-.72,0v-.56h.72v-1.26s.56,0,.56,0v1.26h.96v.56Z"/></g><g class="cls-5"><path class="cls-11" d="m276.46,6487.02h.56v6h-.56v-.75c-.14.26-.33.46-.57.62-.24.16-.53.23-.86.23-.29,0-.56-.05-.82-.16-.25-.11-.48-.26-.67-.45s-.34-.42-.45-.67c-.11-.25-.16-.53-.16-.82s.05-.56.16-.82c.11-.25.26-.48.45-.67s.42-.34.67-.45.53-.16.82-.16c.33,0,.62.08.86.23.24.16.43.36.57.61v-2.74Zm-1.42,5.56c.29,0,.53-.07.74-.21.21-.14.36-.33.47-.57.11-.24.17-.5.17-.78s-.06-.56-.17-.79c-.11-.24-.27-.42-.48-.56-.21-.14-.45-.21-.73-.21s-.54.07-.77.21c-.23.14-.42.33-.56.57s-.21.5-.21.79.07.55.21.79c.14.24.33.42.56.56s.49.21.76.21Z"/><path class="cls-11" d="m279.71,6493.13c-.37,0-.7-.09-1.01-.28s-.54-.44-.72-.76c-.18-.32-.27-.67-.27-1.06,0-.29.05-.57.16-.82.1-.25.25-.48.43-.67s.4-.34.64-.45.5-.16.78-.16c.3,0,.57.06.82.18.25.12.46.28.64.49.18.21.32.46.41.74.09.28.13.59.11.92h-3.39c.03.25.11.48.24.68.13.2.29.36.5.47.2.12.42.17.67.18.27,0,.51-.07.72-.21s.39-.33.52-.57l.57.13c-.16.35-.4.64-.72.87-.32.23-.68.34-1.08.34Zm-1.42-2.34h2.84c-.02-.25-.09-.47-.23-.68-.13-.21-.3-.37-.51-.5s-.44-.19-.68-.19-.48.06-.68.18c-.21.12-.37.29-.5.49-.13.21-.21.44-.24.69Z"/><path class="cls-11" d="m287.83,6490.55v2.48h-.56v-2.36c0-.22-.05-.42-.16-.6-.11-.18-.25-.32-.43-.43s-.38-.16-.6-.16-.41.05-.59.16c-.18.11-.32.25-.43.43-.11.18-.16.38-.16.6v2.36h-.56v-4h.56v.55c.14-.2.33-.36.55-.48.23-.12.47-.18.74-.18.3,0,.58.07.82.22.25.15.45.34.59.59.15.25.22.52.22.82Z"/><path class="cls-11" d="m290.31,6493.13c-.37,0-.7-.09-1.01-.28s-.54-.44-.72-.76c-.18-.32-.27-.67-.27-1.06,0-.29.05-.57.16-.82.1-.25.25-.48.43-.67s.4-.34.64-.45.5-.16.78-.16c.3,0,.57.06.82.18.25.12.46.28.64.49.18.21.32.46.41.74.09.28.13.59.11.92h-3.39c.03.25.11.48.24.68.13.2.29.36.5.47.2.12.42.17.67.18.27,0,.51-.07.72-.21s.39-.33.52-.57l.57.13c-.16.35-.4.64-.72.87-.32.23-.68.34-1.08.34Zm-1.42-2.34h2.84c-.02-.25-.09-.47-.23-.68-.13-.21-.3-.37-.51-.5s-.44-.19-.68-.19-.48.06-.68.18c-.21.12-.37.29-.5.49-.13.21-.21.44-.24.69Z"/><path class="cls-11" d="m295.5,6495.02h-.56v-6h.56v.75c.14-.25.33-.46.57-.62.24-.16.53-.24.86-.24.29,0,.56.05.82.16.25.11.48.26.67.45.19.19.34.42.45.67.11.25.16.53.16.82s-.05.56-.16.82-.26.48-.45.67c-.19.19-.42.34-.67.45-.25.11-.53.16-.82.16-.33,0-.62-.08-.86-.24-.24-.16-.43-.36-.57-.62v2.74Zm1.42-5.56c-.28,0-.52.07-.73.21-.21.14-.37.33-.48.56s-.17.5-.17.79.06.55.17.78.27.43.48.57c.21.14.45.21.73.21s.53-.07.77-.21.42-.33.56-.56c.14-.24.21-.5.21-.79s-.07-.55-.21-.78c-.14-.24-.32-.42-.56-.57-.23-.14-.49-.21-.78-.21Z"/><path class="cls-11" d="m302.95,6489.02h.56v4h-.56l-.02-.74c-.13.25-.31.46-.55.61-.23.16-.51.23-.84.23-.29,0-.57-.05-.82-.17-.26-.11-.48-.26-.68-.46-.19-.2-.35-.42-.46-.68s-.16-.53-.16-.82.05-.56.16-.81.26-.48.45-.67c.19-.19.41-.34.66-.45.25-.11.52-.16.81-.16.33,0,.62.08.87.24.25.16.45.37.59.62l-.02-.75Zm-1.42,3.56c.29,0,.53-.07.74-.21.21-.14.36-.33.47-.57.11-.24.17-.5.17-.78s-.06-.56-.17-.79c-.11-.24-.27-.42-.48-.56-.21-.14-.45-.21-.73-.21s-.54.07-.77.21c-.23.14-.42.33-.56.57s-.21.5-.21.79.07.55.21.79c.14.24.33.42.56.56s.49.21.76.21Z"/><path class="cls-11" d="m305.55,6493.1c-.22,0-.43-.05-.64-.12s-.39-.18-.54-.3c-.15-.13-.27-.27-.33-.44l.48-.21c.04.1.12.2.24.29.12.09.25.16.4.21s.3.08.44.08c.16,0,.31-.03.46-.08.14-.05.26-.13.35-.23.09-.1.13-.22.13-.35,0-.15-.05-.26-.14-.35-.1-.08-.22-.15-.36-.2-.15-.05-.3-.1-.45-.14-.28-.08-.53-.16-.75-.26-.22-.09-.38-.21-.51-.36-.12-.15-.18-.33-.18-.56,0-.24.07-.45.21-.63.14-.18.32-.31.54-.41.22-.1.46-.15.71-.15.33,0,.62.07.89.21.27.14.46.33.58.56l-.45.27c-.05-.11-.12-.2-.23-.28s-.22-.14-.35-.19c-.13-.04-.27-.07-.4-.07-.17,0-.33.02-.48.07-.15.05-.27.13-.35.23-.09.1-.13.23-.13.37s.04.26.13.33c.09.08.21.14.36.18.15.05.32.1.51.16.24.08.47.17.68.26s.39.22.52.37c.13.15.19.33.19.56,0,.24-.07.45-.22.63-.14.18-.33.32-.56.41-.23.09-.47.14-.74.13Z"/><path class="cls-11" d="m309.67,6493.02v-6h.56v6h-.56Z"/><path class="cls-11" d="m312.92,6493.13c-.37,0-.7-.09-1.01-.28s-.54-.44-.72-.76c-.18-.32-.27-.67-.27-1.06,0-.29.05-.57.16-.82.1-.25.25-.48.43-.67s.4-.34.64-.45.5-.16.78-.16c.3,0,.57.06.82.18.25.12.46.28.64.49.18.21.32.46.41.74.09.28.13.59.11.92h-3.39c.03.25.11.48.24.68.13.2.29.36.5.47.2.12.42.17.67.18.27,0,.51-.07.72-.21s.39-.33.52-.57l.57.13c-.16.35-.4.64-.72.87-.32.23-.68.34-1.08.34Zm-1.42-2.34h2.84c-.02-.25-.09-.47-.23-.68-.13-.21-.3-.37-.51-.5s-.44-.19-.68-.19-.48.06-.68.18c-.21.12-.37.29-.5.49-.13.21-.21.44-.24.69Z"/><path class="cls-11" d="m316.84,6493.1c-.22,0-.43-.05-.64-.12s-.39-.18-.54-.3c-.15-.13-.27-.27-.33-.44l.48-.21c.04.1.12.2.24.29.12.09.25.16.4.21s.3.08.44.08c.16,0,.31-.03.46-.08.14-.05.26-.13.35-.23.09-.1.13-.22.13-.35,0-.15-.05-.26-.14-.35-.1-.08-.22-.15-.36-.2-.15-.05-.3-.1-.45-.14-.28-.08-.53-.16-.75-.26-.22-.09-.38-.21-.51-.36-.12-.15-.18-.33-.18-.56,0-.24.07-.45.21-.63.14-.18.32-.31.54-.41.22-.1.46-.15.71-.15.33,0,.62.07.89.21.27.14.46.33.58.56l-.45.27c-.05-.11-.12-.2-.23-.28s-.22-.14-.35-.19c-.13-.04-.27-.07-.4-.07-.17,0-.33.02-.48.07-.15.05-.27.13-.35.23-.09.1-.13.23-.13.37s.04.26.13.33c.09.08.21.14.36.18.15.05.32.1.51.16.24.08.47.17.68.26s.39.22.52.37c.13.15.19.33.19.56,0,.24-.07.45-.22.63-.14.18-.33.32-.56.41-.23.09-.47.14-.74.13Z"/><path class="cls-11" d="m324.14,6489.02h.56v4.15c0,.26-.06.5-.17.72-.11.22-.26.42-.45.59s-.4.3-.64.4c-.24.1-.49.14-.75.14-.28,0-.55-.06-.8-.19-.26-.13-.48-.29-.67-.51-.19-.21-.33-.44-.41-.7l.52-.24c.05.2.15.38.29.54.14.16.31.29.5.38.19.09.39.14.59.14.18,0,.36-.03.53-.1s.33-.16.46-.28.25-.25.33-.41c.08-.16.12-.32.12-.5v-.88c-.14.25-.33.45-.56.61-.24.15-.51.23-.82.23-.28,0-.54-.05-.79-.16-.25-.11-.46-.26-.65-.45s-.33-.42-.44-.67c-.11-.25-.16-.53-.16-.82s.05-.56.16-.82c.11-.25.25-.48.44-.67s.4-.34.65-.45.51-.16.79-.16c.31,0,.59.08.82.23.24.15.42.36.56.61v-.73Zm-1.38,3.56c.28,0,.52-.07.72-.22.2-.14.36-.33.47-.57s.16-.5.16-.77-.06-.55-.17-.78c-.11-.24-.27-.42-.47-.57s-.44-.21-.71-.21-.52.07-.74.21c-.22.14-.4.33-.53.57-.13.24-.2.5-.2.79s.07.55.2.79c.13.24.31.42.53.56.22.14.47.21.73.21Z"/><path class="cls-11" d="m328.91,6489.02h.56v4h-.56l-.02-.74c-.13.25-.31.46-.55.61-.23.16-.51.23-.84.23-.29,0-.57-.05-.82-.17-.26-.11-.48-.26-.68-.46-.19-.2-.35-.42-.46-.68s-.16-.53-.16-.82.05-.56.16-.81.26-.48.45-.67c.19-.19.41-.34.66-.45.25-.11.52-.16.81-.16.33,0,.62.08.87.24.25.16.45.37.59.62l-.02-.75Zm-1.42,3.56c.29,0,.53-.07.74-.21.21-.14.36-.33.47-.57.11-.24.17-.5.17-.78s-.06-.56-.17-.79c-.11-.24-.27-.42-.48-.56-.21-.14-.45-.21-.73-.21s-.54.07-.77.21c-.23.14-.42.33-.56.57s-.21.5-.21.79.07.55.21.79c.14.24.33.42.56.56s.49.21.76.21Z"/><path class="cls-11" d="m330.27,6493.02v-4h.56v.55c.14-.2.33-.36.55-.48.23-.12.47-.18.74-.18.15,0,.3.02.45.06l-.23.56c-.11-.03-.22-.05-.33-.05-.22,0-.41.05-.59.16-.18.11-.32.25-.43.43-.11.18-.16.38-.16.6v2.36h-.56Z"/><path class="cls-11" d="m336.15,6487.02h.56v6h-.56v-.75c-.14.26-.33.46-.57.62-.24.16-.53.23-.86.23-.29,0-.56-.05-.82-.16-.25-.11-.48-.26-.67-.45s-.34-.42-.45-.67c-.11-.25-.16-.53-.16-.82s.05-.56.16-.82c.11-.25.26-.48.45-.67s.42-.34.67-.45.53-.16.82-.16c.33,0,.62.08.86.23.24.16.43.36.57.61v-2.74Zm-1.42,5.56c.29,0,.53-.07.74-.21.21-.14.36-.33.47-.57.11-.24.17-.5.17-.78s-.06-.56-.17-.79c-.11-.24-.27-.42-.48-.56-.21-.14-.45-.21-.73-.21s-.54.07-.77.21c-.23.14-.42.33-.56.57s-.21.5-.21.79.07.55.21.79c.14.24.33.42.56.56s.49.21.76.21Z"/><path class="cls-11" d="m339.4,6493.13c-.37,0-.7-.09-1.01-.28s-.54-.44-.72-.76c-.18-.32-.27-.67-.27-1.06,0-.29.05-.57.16-.82.1-.25.25-.48.43-.67s.4-.34.64-.45.5-.16.78-.16c.3,0,.57.06.82.18.25.12.46.28.64.49.18.21.32.46.41.74.09.28.13.59.11.92h-3.39c.03.25.11.48.24.68.13.2.29.36.5.47.2.12.42.17.67.18.27,0,.51-.07.72-.21s.39-.33.52-.57l.57.13c-.16.35-.4.64-.72.87-.32.23-.68.34-1.08.34Zm-1.42-2.34h2.84c-.02-.25-.09-.47-.23-.68-.13-.21-.3-.37-.51-.5s-.44-.19-.68-.19-.48.06-.68.18c-.21.12-.37.29-.5.49-.13.21-.21.44-.24.69Z"/><path class="cls-11" d="m342.07,6493.02v-4h.56v.55c.14-.2.33-.36.55-.48.23-.12.47-.18.74-.18.15,0,.3.02.45.06l-.23.56c-.11-.03-.22-.05-.33-.05-.22,0-.41.05-.59.16-.18.11-.32.25-.43.43-.11.18-.16.38-.16.6v2.36h-.56Z"/><path class="cls-11" d="m344.82,6493.13c-.09,0-.16-.03-.22-.09-.06-.06-.09-.14-.09-.23,0-.09.03-.16.09-.22.06-.06.14-.09.22-.09s.17.03.23.09c.06.06.09.14.09.22,0,.09-.03.17-.09.23-.06.06-.14.09-.23.09Z"/></g></g><line id="Ligne_66" class="cls-6" x1="244.98" y1="6467.33" x2="244.98" y2="6480.26"/><g id="Mentions_légales" class="cls-5"><g class="cls-5"><path class="cls-11" d="m177.4,6470.3l1.08-5.6h.41l1.57,4.12,1.56-4.12h.41l1.09,5.6h-.57l-.83-4.28-1.48,3.92h-.36l-1.48-3.92-.83,4.28h-.57Z"/><path class="cls-11" d="m185.92,6470.4c-.37,0-.7-.09-1.01-.28s-.54-.44-.72-.76c-.18-.32-.27-.67-.27-1.06,0-.29.05-.57.16-.82.1-.25.25-.48.43-.67s.4-.34.64-.45.5-.16.78-.16c.3,0,.57.06.82.18.25.12.46.28.64.49.18.21.32.46.41.74.09.28.13.59.11.92h-3.39c.03.25.11.48.24.68.13.2.29.36.5.47.2.12.42.17.67.18.27,0,.51-.07.72-.21s.39-.33.52-.57l.57.13c-.16.35-.4.64-.72.87-.32.23-.68.34-1.08.34Zm-1.42-2.34h2.84c-.02-.25-.09-.47-.23-.68-.13-.21-.3-.37-.51-.5s-.44-.19-.68-.19-.48.06-.68.18c-.21.12-.37.29-.5.49-.13.21-.21.44-.24.69Z"/><path class="cls-11" d="m192.07,6467.83v2.48h-.56v-2.36c0-.22-.05-.42-.16-.6-.11-.18-.25-.32-.43-.43s-.38-.16-.6-.16-.41.05-.59.16c-.18.11-.32.25-.43.43-.11.18-.16.38-.16.6v2.36h-.56v-4h.56v.55c.14-.2.33-.36.55-.48.23-.12.47-.18.74-.18.3,0,.58.07.82.22.25.15.45.34.59.59.15.25.22.52.22.82Z"/><path class="cls-11" d="m194.91,6466.86h-.96v3.44h-.56v-3.44s-.72,0-.72,0v-.56h.72v-1.26s.56,0,.56,0v1.26h.96v.56Z"/><path class="cls-11" d="m195.89,6465.6c-.09,0-.17-.03-.23-.09-.06-.06-.09-.14-.09-.23s.03-.17.09-.23c.06-.06.14-.09.23-.09s.16.03.23.09c.06.06.09.14.09.23s-.03.17-.09.23c-.06.06-.14.09-.23.09Zm-.28.7h.56v4h-.56v-4Z"/><path class="cls-11" d="m198.84,6470.4c-.37,0-.7-.09-1.01-.28s-.54-.44-.72-.76c-.18-.32-.27-.67-.27-1.06,0-.29.05-.57.16-.82.1-.25.25-.48.43-.67s.4-.34.64-.45.5-.16.78-.16c.37,0,.7.09,1.01.28s.54.44.72.76c.18.32.27.67.27,1.06,0,.29-.05.56-.16.82-.1.25-.25.48-.43.67s-.39.34-.64.45c-.24.11-.5.16-.78.16Zm0-.56c.27,0,.52-.07.73-.21s.39-.33.52-.57c.13-.23.19-.49.19-.76s-.06-.54-.19-.77c-.13-.24-.3-.42-.52-.57-.22-.14-.46-.21-.73-.21s-.52.07-.73.21-.39.33-.52.57c-.13.24-.19.49-.19.77s.07.55.2.78c.13.23.31.42.52.56.22.14.46.21.72.21Z"/><path class="cls-11" d="m205.01,6467.83v2.48h-.56v-2.36c0-.22-.05-.42-.16-.6-.11-.18-.25-.32-.43-.43s-.38-.16-.6-.16-.41.05-.59.16c-.18.11-.32.25-.43.43-.11.18-.16.38-.16.6v2.36h-.56v-4h.56v.55c.14-.2.33-.36.55-.48.23-.12.47-.18.74-.18.3,0,.58.07.82.22.25.15.45.34.59.59.15.25.22.52.22.82Z"/><path class="cls-11" d="m207.05,6470.38c-.22,0-.43-.05-.64-.12s-.39-.18-.54-.3c-.15-.13-.27-.27-.33-.44l.48-.21c.04.1.12.2.24.29.12.09.25.16.4.21s.3.08.44.08c.16,0,.31-.03.46-.08.14-.05.26-.13.35-.23.09-.1.13-.22.13-.35,0-.15-.05-.26-.14-.35-.1-.08-.22-.15-.36-.2-.15-.05-.3-.1-.45-.14-.28-.08-.53-.16-.75-.26-.22-.09-.38-.21-.51-.36-.12-.15-.18-.33-.18-.56,0-.24.07-.45.21-.63.14-.18.32-.31.54-.41.22-.1.46-.15.71-.15.33,0,.62.07.89.21.27.14.46.33.58.56l-.45.27c-.05-.11-.12-.2-.23-.28s-.22-.14-.35-.19c-.13-.04-.27-.07-.4-.07-.17,0-.33.02-.48.07-.15.05-.27.13-.35.23-.09.1-.13.23-.13.37s.04.26.13.33c.09.08.21.14.36.18.15.05.32.1.51.16.24.08.47.17.68.26s.39.22.52.37c.13.15.19.33.19.56,0,.24-.07.45-.22.63-.14.18-.33.32-.56.41-.23.09-.47.14-.74.13Z"/><path class="cls-11" d="m211.17,6470.3v-6h.56v6h-.56Z"/><path class="cls-11" d="m214.42,6470.4c-.37,0-.7-.09-1.01-.28s-.54-.44-.72-.76c-.18-.32-.27-.67-.27-1.06,0-.29.05-.57.16-.82.1-.25.25-.48.43-.67s.4-.34.64-.45.5-.16.78-.16c.3,0,.57.06.82.18.25.12.46.28.64.49.18.21.32.46.41.74.09.28.13.59.11.92h-3.39c.03.25.11.48.24.68.13.2.29.36.5.47.2.12.42.17.67.18.27,0,.51-.07.72-.21s.39-.33.52-.57l.57.13c-.16.35-.4.64-.72.87-.32.23-.68.34-1.08.34Zm-1.42-2.34h2.84c-.02-.25-.09-.47-.23-.68-.13-.21-.3-.37-.51-.5s-.44-.19-.68-.19-.48.06-.68.18c-.21.12-.37.29-.5.49-.13.21-.21.44-.24.69Zm1.28-2.2l.32-1.15h.56l-.5,1.15h-.38Z"/><path class="cls-11" d="m220.23,6466.3h.56v4.15c0,.26-.06.5-.17.72-.11.22-.26.42-.45.59s-.4.3-.64.4c-.24.1-.49.14-.75.14-.28,0-.55-.06-.8-.19-.26-.13-.48-.29-.67-.51-.19-.21-.33-.44-.41-.7l.52-.24c.05.2.15.38.29.54.14.16.31.29.5.38.19.09.39.14.59.14.18,0,.36-.03.53-.1s.33-.16.46-.28.25-.25.33-.41c.08-.16.12-.32.12-.5v-.88c-.14.25-.33.45-.56.61-.24.15-.51.23-.82.23-.28,0-.54-.05-.79-.16-.25-.11-.46-.26-.65-.45s-.33-.42-.44-.67c-.11-.25-.16-.53-.16-.82s.05-.56.16-.82c.11-.25.25-.48.44-.67s.4-.34.65-.45.51-.16.79-.16c.31,0,.59.08.82.23.24.15.42.36.56.61v-.73Zm-1.38,3.56c.28,0,.52-.07.72-.22.2-.14.36-.33.47-.57s.16-.5.16-.77-.06-.55-.17-.78c-.11-.24-.27-.42-.47-.57s-.44-.21-.71-.21-.52.07-.74.21c-.22.14-.4.33-.53.57-.13.24-.2.5-.2.79s.07.55.2.79c.13.24.31.42.53.56.22.14.47.21.73.21Z"/><path class="cls-11" d="m224.99,6466.3h.56v4h-.56l-.02-.74c-.13.25-.31.46-.55.61-.23.16-.51.23-.84.23-.29,0-.57-.05-.82-.17-.26-.11-.48-.26-.68-.46-.19-.2-.35-.42-.46-.68s-.16-.53-.16-.82.05-.56.16-.81.26-.48.45-.67c.19-.19.41-.34.66-.45.25-.11.52-.16.81-.16.33,0,.62.08.87.24.25.16.45.37.59.62l-.02-.75Zm-1.42,3.56c.29,0,.53-.07.74-.21.21-.14.36-.33.47-.57.11-.24.17-.5.17-.78s-.06-.56-.17-.79c-.11-.24-.27-.42-.48-.56-.21-.14-.45-.21-.73-.21s-.54.07-.77.21c-.23.14-.42.33-.56.57s-.21.5-.21.79.07.55.21.79c.14.24.33.42.56.56s.49.21.76.21Z"/><path class="cls-11" d="m226.41,6470.3v-6h.56v6h-.56Z"/><path class="cls-11" d="m229.66,6470.4c-.37,0-.7-.09-1.01-.28s-.54-.44-.72-.76c-.18-.32-.27-.67-.27-1.06,0-.29.05-.57.16-.82.1-.25.25-.48.43-.67s.4-.34.64-.45.5-.16.78-.16c.3,0,.57.06.82.18.25.12.46.28.64.49.18.21.32.46.41.74.09.28.13.59.11.92h-3.39c.03.25.11.48.24.68.13.2.29.36.5.47.2.12.42.17.67.18.27,0,.51-.07.72-.21s.39-.33.52-.57l.57.13c-.16.35-.4.64-.72.87-.32.23-.68.34-1.08.34Zm-1.42-2.34h2.84c-.02-.25-.09-.47-.23-.68-.13-.21-.3-.37-.51-.5s-.44-.19-.68-.19-.48.06-.68.18c-.21.12-.37.29-.5.49-.13.21-.21.44-.24.69Z"/><path class="cls-11" d="m233.57,6470.38c-.22,0-.43-.05-.64-.12s-.39-.18-.54-.3c-.15-.13-.27-.27-.33-.44l.48-.21c.04.1.12.2.24.29.12.09.25.16.4.21s.3.08.44.08c.16,0,.31-.03.46-.08.14-.05.26-.13.35-.23.09-.1.13-.22.13-.35,0-.15-.05-.26-.14-.35-.1-.08-.22-.15-.36-.2-.15-.05-.3-.1-.45-.14-.28-.08-.53-.16-.75-.26-.22-.09-.38-.21-.51-.36-.12-.15-.18-.33-.18-.56,0-.24.07-.45.21-.63.14-.18.32-.31.54-.41.22-.1.46-.15.71-.15.33,0,.62.07.89.21.27.14.46.33.58.56l-.45.27c-.05-.11-.12-.2-.23-.28s-.22-.14-.35-.19c-.13-.04-.27-.07-.4-.07-.17,0-.33.02-.48.07-.15.05-.27.13-.35.23-.09.1-.13.23-.13.37s.04.26.13.33c.09.08.21.14.36.18.15.05.32.1.51.16.24.08.47.17.68.26s.39.22.52.37c.13.15.19.33.19.56,0,.24-.07.45-.22.63-.14.18-.33.32-.56.41-.23.09-.47.14-.74.13Z"/></g></g><g id="CGV" class="cls-5"><g class="cls-5"><path class="cls-11" d="m200.8,6480.97c-.38,0-.73-.08-1.07-.23s-.63-.36-.88-.62-.45-.57-.59-.93c-.14-.35-.21-.73-.21-1.13s.07-.78.21-1.13c.14-.35.34-.66.59-.93.25-.27.54-.47.88-.62.33-.15.69-.23,1.07-.23.45,0,.87.11,1.25.32.38.21.7.49.95.84l-.5.27c-.2-.26-.45-.47-.75-.63s-.62-.23-.95-.23c-.31,0-.59.06-.86.19-.27.12-.5.29-.7.51-.2.22-.36.47-.47.75-.11.28-.17.58-.17.9s.06.62.17.91c.11.28.27.53.47.75.2.22.43.38.7.51.27.12.55.18.85.18.35,0,.67-.08.97-.24.3-.16.54-.37.74-.62l.5.27c-.25.35-.57.63-.95.84-.38.21-.8.31-1.25.31Z"/><path class="cls-11" d="m206.41,6480.97c-.38,0-.74-.08-1.08-.23-.33-.15-.63-.36-.88-.63-.25-.27-.45-.58-.59-.93-.14-.35-.21-.73-.21-1.13s.07-.79.22-1.14c.15-.35.35-.66.6-.92s.55-.47.88-.61c.33-.15.68-.22,1.06-.22.43,0,.84.1,1.22.3.38.2.71.48.97.85l-.5.27c-.21-.28-.47-.49-.77-.64-.3-.15-.61-.22-.93-.22s-.58.06-.85.18-.5.29-.7.51-.36.47-.48.75c-.11.28-.17.59-.17.91s.06.62.17.91c.11.28.27.53.47.75.2.21.44.38.7.5.27.12.55.18.86.18.25,0,.49-.04.71-.13.23-.09.43-.21.62-.37s.34-.34.47-.55.22-.44.28-.69h-1.51v-.51h2.16c0,.39-.09.75-.23,1.09-.15.34-.35.64-.6.89-.25.26-.54.46-.87.6s-.68.22-1.05.22Z"/><path class="cls-11" d="m211.59,6480.87l-2.03-5.6h.59l1.78,4.9,1.78-4.9h.59l-2.04,5.6h-.68Z"/></g></g><line id="Ligne_67" class="cls-6" x1="165.69" y1="6468.3" x2="165.69" y2="6481.23"/><g id="Groupe_2985"><g id="Groupe_2878"><g id="Groupe_2855"><g id="Rectangle_244"><rect class="cls-12" x="140.69" y="6468.98" width="12.85" height="12.41"/><rect class="cls-9" x="142.19" y="6470.48" width="9.85" height="9.41"/></g><rect id="Rectangle_547" class="cls-1" x="145.05" y="6473.16" width="4.14" height="4.14"/></g><g id="Groupe_2877"><g class="cls-10"><g id="Groupe_2851"><path id="Tracé_1474" class="cls-14" d="m150.04,6473.78s0-.05-.02-.07c0,0,0-.02-.01-.03-.08-.24-.3-.4-.56-.4h.04c-.8-.11-1.61-.16-2.42-.16-.81,0-1.62.06-2.42.16h.04c-.25,0-.48.16-.56.4v.03s-.02.05-.02.07c-.07.48-.1.97-.11,1.45,0,.49.04.97.11,1.45,0,.02,0,.05.01.07,0,.01,0,.02,0,.03.08.24.3.4.56.4h-.04c.8.11,1.61.16,2.42.16.81,0,1.62-.06,2.42-.16h-.04c.25,0,.48-.16.56-.4,0-.01,0-.02.01-.03,0-.02.01-.05.01-.07.07-.48.1-.97.11-1.45,0-.49-.04-.97-.11-1.45m-2.05,1.58l-1.24.9s-.06.03-.09.03c-.02,0-.05,0-.07-.02-.05-.03-.08-.08-.08-.13v-1.8c0-.08.07-.15.15-.15.03,0,.06,0,.09.03l1.24.9c.07.05.08.14.03.21,0,.01-.02.02-.03.03"/></g></g></g></g><g id="Groupe_2879"><g id="Groupe_2855-2"><g id="Rectangle_244-2"><rect class="cls-12" x="140.69" y="6468.98" width="12.85" height="12.41"/><rect class="cls-9" x="142.19" y="6470.48" width="9.85" height="9.41"/></g><rect id="Rectangle_547-2" class="cls-1" x="145.05" y="6473.16" width="4.14" height="4.14"/></g><g id="Groupe_2877-2"><g class="cls-4"><g id="Groupe_2851-2"><path id="Tracé_1474-2" class="cls-14" d="m150.04,6473.78s0-.05-.02-.07c0,0,0-.02-.01-.03-.08-.24-.3-.4-.56-.4h.04c-.8-.11-1.61-.16-2.42-.16-.81,0-1.62.06-2.42.16h.04c-.25,0-.48.16-.56.4v.03s-.02.05-.02.07c-.07.48-.1.97-.11,1.45,0,.49.04.97.11,1.45,0,.02,0,.05.01.07,0,.01,0,.02,0,.03.08.24.3.4.56.4h-.04c.8.11,1.61.16,2.42.16.81,0,1.62-.06,2.42-.16h-.04c.25,0,.48-.16.56-.4,0-.01,0-.02.01-.03,0-.02.01-.05.01-.07.07-.48.1-.97.11-1.45,0-.49-.04-.97-.11-1.45m-2.05,1.58l-1.24.9s-.06.03-.09.03c-.02,0-.05,0-.07-.02-.05-.03-.08-.08-.08-.13v-1.8c0-.08.07-.15.15-.15.03,0,.06,0,.09.03l1.24.9c.07.05.08.14.03.21,0,.01-.02.02-.03.03"/></g></g></g></g></g><line id="Ligne_68" class="cls-6" x1="97.58" y1="6468.3" x2="97.58" y2="6481.23"/><g id="Groupe_2986"><g id="Rectangle_246"><rect class="cls-12" x="108" y="6469.01" width="12.85" height="12.41"/><rect class="cls-8" x="109.5" y="6470.51" width="9.85" height="9.41"/></g><g class="cls-3"><g id="Groupe_2850"><path id="Tracé_1473" class="cls-15" d="m113.17,6477.33h-.91v-2.92h.91v2.92Zm-.48-3.29h0c-.28.02-.52-.19-.54-.47,0-.01,0-.03,0-.04,0-.28.23-.51.52-.51.01,0,.03,0,.04,0,.28-.02.52.19.54.47.02.28-.19.52-.47.54-.03,0-.05,0-.08,0m4.13,3.29h-1.04v-1.51c0-.4-.16-.66-.52-.66-.22,0-.42.15-.49.36-.02.08-.03.16-.02.24v1.58h-1.02s.01-2.68,0-2.92h1.02v.46c.18-.33.54-.52.91-.49.65,0,1.16.42,1.16,1.32v1.62Z"/></g></g></g><g id="Groupe_2987"><g class="cls-2"><g id="Groupe_9"><path id="Tracé_8" class="cls-11" d="m87.56,6481.43h-3.32v-6.88c0-2.1-1.71-3.81-3.81-3.8-2.1,0-3.8,1.7-3.8,3.8v1.66h-3.33v-1.66c0-3.94,3.19-7.13,7.12-7.14,3.94,0,7.13,3.19,7.14,7.12h0v6.89Z"/><rect id="Rectangle_15" class="cls-15" x="73.3" y="6467.07" width="3.33" height="14.36"/><path id="Tracé_9" class="cls-11" d="m38.33,6471.45c0,.6.49,1.08,1.09,1.09h0v3.33h0c-2.44-.04-4.38-2.04-4.35-4.48.04-2.39,1.96-4.31,4.35-4.35h6.1v3.33h-6.1c-.6,0-1.09.49-1.09,1.09"/><path id="Tracé_10" class="cls-15" d="m45.65,6476.94c0,2.44-1.98,4.41-4.41,4.41h-6.1v-3.33h6.1c.6,0,1.09-.48,1.09-1.08,0,0,0,0,0,0,0-.58-.47-1.06-1.05-1.07v-3.33c2.42.02,4.37,1.99,4.37,4.4"/><rect id="Rectangle_16" class="cls-11" x="50.43" y="6467.25" width="3.33" height="14.15"/><path id="Tracé_11" class="cls-15" d="m63.95,6481.36c-3.87,0-7.01-3.14-7.01-7.01s3.14-7.01,7.01-7.01c3.87,0,7.01,3.14,7.01,7.01h0c0,3.87-3.14,7.01-7.01,7.01m0-10.7c-2.04,0-3.69,1.65-3.69,3.68,0,2.04,1.65,3.69,3.68,3.69,2.04,0,3.69-1.65,3.69-3.68h0c0-2.04-1.65-3.69-3.69-3.69"/><rect id="Rectangle_17" class="cls-15" x="47.45" y="6467.04" width="9.28" height="3.33"/><rect id="Rectangle_18" class="cls-11" x="67.63" y="6467.07" width="3.33" height="14.33"/></g></g></g><g id="Groupe_2988"><g id="Rectangle_245"><rect class="cls-12" x="124.35" y="6469.01" width="12.85" height="12.41"/><rect class="cls-7" x="125.85" y="6470.51" width="9.85" height="9.41"/></g><path id="twitter" class="cls-16" d="m132.78,6474.36v.12c.01,1.46-1.16,2.64-2.62,2.65-.01,0-.03,0-.04,0-.51,0-1-.14-1.43-.41.07,0,.15.01.22.01.42,0,.83-.14,1.16-.4-.4,0-.75-.27-.87-.65.06,0,.12.01.18.01.08,0,.17-.01.25-.03-.44-.09-.75-.47-.75-.92h0c.13.06.27.1.42.11-.41-.27-.54-.82-.29-1.25.47.58,1.17.94,1.92.98-.01-.07-.02-.14-.02-.21,0-.52.42-.93.94-.93.26,0,.5.11.68.29.21-.04.41-.12.59-.22-.07.22-.22.4-.41.51.19-.02.37-.07.54-.14-.13.19-.29.35-.47.48Z"/></g></g><rect id="Rectangle_336" class="cls-13" x="35" y="3245" width="323" height="300"/><rect id="Rectangle_337" class="cls-13" y="4863" width="357" height="340"/></svg>