<?xml version="1.0" encoding="UTF-8"?><svg id="Calque_1" xmlns="http://www.w3.org/2000/svg" viewBox="0 0 81.09 73.45"><defs><style>.cls-1{fill:#ff6669;}.cls-2{fill:#d44d54;}.cls-3{fill:#063dd0;}.cls-4{fill:#293378;}</style></defs><g id="Groupe_2868"><g id="Groupe_2867"><path id="Tracé_1479" class="cls-3" d="m45.98,70.2c-15.77-.02-28.56-12.8-28.57-28.57h13.2c0,8.49,6.88,15.37,15.37,15.37,8.49,0,15.37-6.88,15.37-15.37,0-8.49-6.88-15.37-15.37-15.37h0v-13.21c15.78,0,28.58,12.79,28.58,28.57,0,15.78-12.79,28.58-28.57,28.58h0"/><path id="Tracé_1480" class="cls-4" d="m19.5,37.88c0-12.13,9.84-21.97,21.97-21.97h0"/><path id="Tracé_1481" class="cls-1" d="m26.11,37.88h-13.2c.01-15.77,12.79-28.56,28.57-28.57v13.2c-8.49.01-15.36,6.89-15.37,15.38"/><path id="Tracé_1482" class="cls-2" d="m20.44,10.21c0,3.84-3.11,6.95-6.95,6.95-3.84,0-6.95-3.11-6.95-6.95,0-3.84,3.11-6.95,6.95-6.95,0,0,0,0,0,0,3.84,0,6.95,3.11,6.95,6.95"/></g></g></svg>