<?xml version="1.0" encoding="UTF-8"?><svg id="Calque_1" xmlns="http://www.w3.org/2000/svg" viewBox="0 0 64.91 59.87"><defs><style>.cls-1{fill:#000061;}.cls-2{fill:#ff6669;}.cls-3{fill:#063dd0;}.cls-4{fill:#1adee0;}</style></defs><g id="Groupe_3009"><g id="Groupe_3006"><g id="Groupe_3005"><g id="Groupe_2943"><path id="Tracé_1583" class="cls-3" d="m31.32,42.58s-.01,0-.02,0l.44.14v-.11c-.14,0-.29-.02-.43-.03m1.14-35.34c-12.53.02-22.68,10.17-22.69,22.69,0,.32,0,.64.02.96h10.01c-.02-.32-.03-.64-.03-.96,0-7.01,5.69-12.69,12.7-12.69.24,0,.47,0,.7.02V7.26c-.23-.02-.47-.02-.7-.02"/><path id="Tracé_1584" class="cls-1" d="m55.14,29.94c-.02,12.53-10.17,22.68-22.69,22.69-.24,0-.47,0-.7-.01v-10c.23.01.47.02.7.02,7.01,0,12.69-5.69,12.7-12.7,0-.26,0-.52-.02-.78h10.01c0,.26.01.52.01.78"/><path id="Tracé_1585" class="cls-2" d="m31.75,42.61v10c-11.87-.38-21.45-9.85-21.97-21.72h10.01c.48,6.18,5.34,11.12,11.51,11.69,0,0,.01,0,.02,0,.14.01.29.02.43.03"/><path id="Tracé_1586" class="cls-4" d="m55.13,29.16h-10.01c-.4-6.43-5.54-11.54-11.97-11.9V7.25c11.95.38,21.55,9.96,21.98,21.91"/></g></g></g></g></svg>