<?xml version="1.0" encoding="UTF-8"?><svg id="Calque_1" xmlns="http://www.w3.org/2000/svg" xmlns:xlink="http://www.w3.org/1999/xlink" viewBox="0 0 87.67 20.27"><defs><style>.cls-1,.cls-2,.cls-3,.cls-4,.cls-5,.cls-6{fill:none;}.cls-2{clip-path:url(#clippath-3);}.cls-3{clip-path:url(#clippath-4);}.cls-4{clip-path:url(#clippath-2);}.cls-5{clip-path:url(#clippath-1);}.cls-7{fill:#063dd0;}.cls-8{fill:#19dee0;}.cls-6{clip-path:url(#clippath);}</style><clipPath id="clippath"><rect class="cls-1" x="39.34" y="5.64" width="9" height="9"/></clipPath><clipPath id="clippath-1"><rect class="cls-1" x="24.02" y="5.64" width="9" height="9"/></clipPath><clipPath id="clippath-2"><rect class="cls-1" x="8.71" y="5.64" width="9" height="9"/></clipPath><clipPath id="clippath-3"><rect class="cls-1" x="54.65" y="5.64" width="9" height="9"/></clipPath><clipPath id="clippath-4"><rect class="cls-1" x="69.96" y="5.64" width="9" height="9"/></clipPath></defs><g id="Groupe_3081"><g class="cls-6"><g id="Groupe_3054"><path id="Tracé_1667" class="cls-7" d="m48.34,10.14c0,2.49-2.01,4.5-4.5,4.5s-4.5-2.01-4.5-4.5,2.01-4.5,4.5-4.5,4.5,2.01,4.5,4.5"/></g></g><g id="Groupe_3055"><g class="cls-5"><g id="Groupe_2950"><path id="Tracé_1593" class="cls-8" d="m33.02,10.14c0,2.49-2.01,4.5-4.5,4.5s-4.5-2.01-4.5-4.5,2.01-4.5,4.5-4.5,4.5,2.01,4.5,4.5"/></g></g></g><g id="Groupe_3076"><g class="cls-4"><g id="Groupe_2950-2"><path id="Tracé_1593-2" class="cls-7" d="m17.71,10.14c0,2.49-2.01,4.5-4.5,4.5s-4.5-2.01-4.5-4.5,2.01-4.5,4.5-4.5,4.5,2.01,4.5,4.5"/></g></g></g><g id="Groupe_3056"><g class="cls-2"><g id="Groupe_2954"><path id="Tracé_1595" class="cls-8" d="m63.65,10.14c0,2.49-2.01,4.5-4.5,4.5s-4.5-2.01-4.5-4.5,2.01-4.5,4.5-4.5,4.5,2.01,4.5,4.5"/></g></g></g><g id="Groupe_3077"><g class="cls-3"><g id="Groupe_2954-2"><path id="Tracé_1595-2" class="cls-7" d="m78.96,10.14c0,2.49-2.01,4.5-4.5,4.5s-4.5-2.01-4.5-4.5,2.01-4.5,4.5-4.5,4.5,2.01,4.5,4.5"/></g></g></g></g></svg>