<?xml version="1.0" encoding="UTF-8"?><svg id="Calque_1" xmlns="http://www.w3.org/2000/svg" viewBox="0 0 96.86 94.6"><defs><style>.cls-1{fill:#ff6669;}.cls-2{fill:#d44d54;}.cls-3{fill:#063dd0;}.cls-4{fill:#293378;}</style></defs><g id="Groupe_2867"><path id="Tracé_1479" class="cls-3" d="m54.26,79.28c-15.75-.02-28.52-12.78-28.54-28.54h13.19c0,8.48,6.87,15.35,15.35,15.35,8.48,0,15.35-6.87,15.35-15.35s-6.87-15.35-15.35-15.35h0v-13.19c15.76,0,28.54,12.77,28.54,28.53,0,15.76-12.77,28.54-28.53,28.54h-.01"/><path id="Tracé_1480" class="cls-4" d="m27.82,47.01c0-12.12,9.82-21.94,21.94-21.94"/><path id="Tracé_1481" class="cls-1" d="m34.42,47.01h-13.19c.02-15.75,12.78-28.52,28.54-28.54v13.19c-8.47.01-15.34,6.88-15.35,15.35"/><path id="Tracé_1482" class="cls-2" d="m28.76,19.38c0,3.84-3.11,6.94-6.94,6.94s-6.94-3.11-6.94-6.94,3.11-6.94,6.94-6.94c0,0,0,0,0,0,3.84,0,6.94,3.11,6.94,6.94h0"/></g></svg>