<svg xmlns="http://www.w3.org/2000/svg" viewBox="0 0 299.94 90.18">
  <defs/>
  <g id="d005c330-a63d-442c-bdd8-d6510d15fbd7" data-name="Layer 2">
    <g id="1376ee96-7abb-4da0-8b35-4b36e3b45f33" data-name="Layer 1">
      <path  fill="#ebf5fa" d="M55.15 82.66l6.47-11.57A34 34 0 0080 76.65a12.39 12.39 0 007.22-1.88 5.84 5.84 0 002.7-5 6.12 6.12 0 00-3.15-5.34A57.58 57.58 0 0077 59.82q-9-3.47-14-8.19a16.35 16.35 0 01-5-12.4 16.12 16.12 0 016.85-13.83q6.84-5 16.91-5a43.15 43.15 0 0121.94 6L98 37.42a32.11 32.11 0 00-14.88-3.9 15 15 0 00-6.84 1.35 4.56 4.56 0 00-2.63 4.36q0 3 3.08 5.18a37.81 37.81 0 009.1 4.29q9.77 3.6 15 8.41A16.42 16.42 0 01106 69.74q0 9.32-6.84 14.8t-18 5.46a47.45 47.45 0 01-26-7.37M127.82 84.54q-5.32-5.48-5.33-16.46V35.47l-11.88-.9V21.49h11.88L122.94 0h15.93v21.49h20.74v14h-20.74v31c0 3.11.62 5.31 1.88 6.61a7.23 7.23 0 005.48 2 20.63 20.63 0 0011.28-3.46l5.26 12.33A37.6 37.6 0 01142.48 90q-9.33 0-14.66-5.49M216 70.26q-5.32 5.64-14 5.64a17.86 17.86 0 01-13.68-5.64q-5.25-5.62-5.26-15.25 0-9.46 5.26-15.11A17.88 17.88 0 01202 34.27q8.72 0 14 5.63t5.38 15.1q0 9.62-5.34 15.25m9.1-48.77l-2.71 9.62A28.82 28.82 0 00212 22.69a30.66 30.66 0 00-13.15-2.85 31.77 31.77 0 00-16.69 4.43 30.53 30.53 0 00-11.5 12.48A39.44 39.44 0 00166.52 55a40.16 40.16 0 004.06 18.49 29.69 29.69 0 0011.35 12.32 31.76 31.76 0 0016.6 4.36 32.21 32.21 0 0013.68-2.86 29 29 0 0010.52-8.26l2.27 9.48h12.17v-67z"/>
      <path fill="#FFF75F" d="M293.86 26.68q6.08 7 6.08 19.91v41.93h-16.38V48.09q0-13.67-11.42-13.67-7.51 0-11.95 4.81A23.88 23.88 0 00254.1 55v24.06l-2.55 9.46h-12.18v-67h12l2.7 9.62c2.41-3.7 5.19-5.79 9-8a25.38 25.38 0 0113.3-3.38q11.41 0 17.51 7M42.2 38.95L22.33 82.47l-6.46 7.63-10.95-5 27.87-61.03 10.95 5-1.54 9.88z" />
      <path fill="#ebf5fa" d="M38.82 5.08L10.95 66.11 0 61.11l1.54-9.88L21.41 7.71 27.87.07l10.95 5.01z" />
    </g>
  </g>
</svg>